<svg width="10" height="9" viewBox="0 0 10 9" fill="none" xmlns="http://www.w3.org/2000/svg">
<path d="M9.96441 4.67627C9.96441 4.67627 10 4.56395 10 4.48907C10 4.41418 9.98814 4.36426 9.96441 4.30186C9.94069 4.23946 9.9051 4.18954 9.86951 4.15209L6.51245 0.632593C6.33452 0.445386 6.06168 0.445386 5.88375 0.632593C5.70581 0.819801 5.70581 1.11933 5.88375 1.29406L8.48161 4.02729H0.450771C0.201661 4.02729 0 4.23946 0 4.50155C0 4.76364 0.201661 4.97581 0.450771 4.97581H8.48161L5.88375 7.70904C5.70581 7.89624 5.70581 8.1833 5.88375 8.3705C5.96679 8.45787 6.08541 8.50779 6.20403 8.50779C6.32266 8.50779 6.42942 8.45787 6.52432 8.3705L9.88138 4.83852C9.88138 4.83852 9.95255 4.73868 9.97627 4.68876L9.96441 4.67627Z" fill="#EC5D25"/>
</svg>
