<svg width="17" height="18" viewBox="0 0 17 18" fill="none" xmlns="http://www.w3.org/2000/svg">
<path fill-rule="evenodd" clip-rule="evenodd" d="M0 9.25282C0 4.56502 3.81502 0.75 8.50282 0.75C13.1927 0.75 17.0056 4.56502 17.0056 9.25282C17.0056 13.9406 13.1906 17.7556 8.50282 17.7556C3.81502 17.7556 0 13.9406 0 9.25282ZM0.841238 9.25492C0.841238 13.48 4.2777 16.9165 8.50282 16.9165V16.9144C12.7279 16.9144 16.1644 13.4779 16.1644 9.25282C16.1644 5.0277 12.7279 1.59124 8.50282 1.59124C4.2777 1.59124 0.841238 5.0298 0.841238 9.25492ZM8.50272 11.2655L12.5743 7.1939H12.5701C12.7342 7.02986 13.0012 7.02986 13.1653 7.1939C13.3293 7.35794 13.3293 7.62503 13.1653 7.78908L8.79716 12.1572C8.71514 12.2392 8.60788 12.2813 8.50062 12.2813C8.39336 12.2813 8.2861 12.2392 8.20408 12.1572L3.83595 7.78908C3.67191 7.62503 3.67191 7.35794 3.83595 7.1939C3.99999 7.02986 4.26709 7.02986 4.43113 7.1939L8.50272 11.2655Z" fill="white"/>
</svg>
