<svg width="99" height="100" viewBox="0 0 99 100" fill="none" xmlns="http://www.w3.org/2000/svg">
<path d="M9.86932 99.9882H89.1307C91.7662 99.9882 94.2444 98.9617 96.1089 97.0982C97.973 95.2341 99 92.7554 99 90.1194V15.6375C99 14.7372 98.8805 13.8474 98.6441 12.9932C98.5783 12.7573 98.5054 12.526 98.4262 12.3056C98.3455 12.08 98.256 11.856 98.1593 11.6392C97.6688 10.5316 96.9786 9.52889 96.1084 8.65868C94.2444 6.7946 91.7662 5.76762 89.1302 5.76762H72.5056V1.53193C72.5056 0.687065 71.8185 0 70.9736 0C70.1288 0 69.4417 0.687065 69.4417 1.53193V5.76762H51.0317V1.53193C51.0317 0.687065 50.3446 0 49.4997 0C48.6549 0 47.9678 0.687065 47.9678 1.53193V5.76762H29.5578V1.53193C29.5578 0.687065 28.8707 0 28.0258 0C27.181 0 26.4939 0.687065 26.4939 1.53193V5.76762H9.86932C9.78758 5.76762 9.7048 5.76918 9.62357 5.77125C7.08226 5.83281 4.6915 6.85824 2.89002 8.65868C2.02084 9.52734 1.33119 10.53 0.839689 11.6382C0.769844 11.7965 0.709829 11.9419 0.657058 12.08C0.54065 12.3811 0.439763 12.6869 0.356467 12.9911C0.120029 13.8474 0 14.7372 0 15.638V90.1194C0 92.7554 1.02646 95.2341 2.89002 97.0987C4.7541 98.9622 7.23281 99.9887 9.8688 99.9887L9.86932 99.9882ZM3.06386 15.6375C3.06386 11.885 6.11685 8.832 9.86932 8.832H26.4939V13.0677C26.4939 13.9126 27.181 14.5996 28.0258 14.5996C28.8707 14.5996 29.5578 13.9126 29.5578 13.0677V8.832H47.9678V13.0677C47.9678 13.9126 48.6549 14.5996 49.4997 14.5996C50.3446 14.5996 51.0317 13.9126 51.0317 13.0677V8.832H69.4417V13.0677C69.4417 13.9126 70.1288 14.5996 70.9736 14.5996C71.8185 14.5996 72.5056 13.9126 72.5056 13.0677V8.832H89.1302C92.8826 8.832 95.9356 11.885 95.9356 15.6375V90.1189C95.9356 93.8713 92.8826 96.9243 89.1302 96.9243H9.86932C6.11685 96.9243 3.06386 93.8713 3.06386 90.1189V15.6375Z" fill="#EC5D25"/>
</svg>
