<svg width="74" height="74" viewBox="0 0 74 74" fill="none" xmlns="http://www.w3.org/2000/svg">
<path fill-rule="evenodd" clip-rule="evenodd" d="M21.9862 23.0261C22.4144 23.3841 22.665 23.9108 22.677 24.4673C22.677 25.4564 21.8758 26.2575 20.8867 26.2575C19.8975 26.2575 19.0964 25.4564 19.0964 24.4673C19.0964 23.8078 18.5623 23.2737 17.9029 23.2737C17.2434 23.2737 16.7093 23.8078 16.7093 24.4673C16.6989 26.7648 18.5533 28.6356 20.8494 28.6446C21.8997 28.6491 22.9127 28.2567 23.6855 27.5451C25.2893 31.8686 28.6834 35.288 32.995 36.9232C33.0979 36.956 33.2053 36.9754 33.3142 36.9799C32.5803 41.3692 28.8473 42.479 27.5131 42.8756C27.2905 42.9418 27.1346 42.9882 27.0706 43.0266C26.5843 43.1892 26.256 43.6457 26.256 44.1589V48.933C26.256 49.5924 26.7901 50.1265 27.4496 50.1265H46.546C47.2054 50.1265 47.7395 49.5924 47.7395 48.933V44.1589C47.7186 43.6517 47.3978 43.2071 46.9234 43.0266L45.424 42.5268C42.937 41.7003 41.1109 39.5653 40.6798 36.9799C40.7887 36.9739 40.8946 36.956 40.9991 36.9232C45.3107 35.288 48.7047 31.8686 50.3085 27.5451C51.9974 29.1026 54.6291 28.9967 56.1866 27.3078C56.8998 26.535 57.2936 25.519 57.2892 24.4673C57.2892 23.8078 56.7551 23.2737 56.0956 23.2737C55.4362 23.2737 54.9021 23.8078 54.9021 24.4673C54.9021 25.4564 54.101 26.2575 53.1118 26.2575C52.1227 26.2575 51.3215 25.4564 51.3215 24.4673C51.3171 24.0182 51.4871 23.5855 51.7975 23.2603C52.2301 22.8068 60.6176 13.9956 61.2547 13.3257C62.5213 11.9785 63.2359 10.2046 63.2568 8.35467C63.2642 4.4056 60.0686 1.19949 56.1195 1.19352C54.3471 1.19054 52.6374 1.84549 51.3215 3.03155V1.19352C51.3215 0.534102 50.7874 0 50.128 0H23.8705C23.2111 0 22.677 0.534102 22.677 1.19352V3.03155C19.6932 0.435636 15.1697 0.750429 12.5738 3.73424C10.1673 6.50023 10.2389 10.6373 12.7394 13.3197L21.9862 23.0261ZM52.2928 5.46336C53.1969 4.2758 54.6037 3.57908 56.0956 3.58057C59.6762 3.58057 62.8003 7.73404 59.342 11.8681L51.3215 20.2899V13.6823C51.4633 13.8106 51.605 13.9389 51.7572 14.0552C52.2823 14.4536 53.0313 14.3506 53.4296 13.8255C53.8279 13.3003 53.725 12.5514 53.1999 12.1531C51.1022 10.5567 50.6949 7.56098 52.2928 5.46336ZM41.5033 42.9669H35.8057C35.1463 42.9669 34.6122 43.501 34.6122 44.1604C34.6122 44.8198 35.1463 45.3539 35.8057 45.3539H45.3539V47.741H28.6446V45.0212C32.4042 44.0217 35.194 40.8558 35.7117 36.9993H38.2868C38.5822 39.3192 39.7279 41.4451 41.5033 42.9669ZM25.064 2.38705H48.9345V22.028C48.9166 27.5809 45.521 32.5653 40.3575 34.6122H33.641C28.479 32.5653 25.0819 27.5809 25.064 22.028V2.38705ZM14.661 4.86063C15.5427 4.04157 16.7004 3.58356 17.9029 3.58057C20.5391 3.57759 22.6785 5.714 22.6814 8.3502C22.6814 9.8421 21.9862 11.249 20.7987 12.1531C20.2735 12.5514 20.1706 13.3003 20.5689 13.8255C20.9672 14.3506 21.7162 14.4536 22.2413 14.0552C22.3935 13.9359 22.5352 13.8091 22.6769 13.6823L22.6769 13.6823L22.677 13.6823V20.2899L14.4282 11.6294L14.4163 11.616C12.6185 9.68247 12.7274 6.65837 14.6595 4.86063H14.661ZM21.2537 49.5238C21.7594 49.9714 22.3383 50.3309 22.9634 50.5875H22.9649C29.0474 53.0671 32.2267 59.3778 32.2267 62.0633C32.2192 63.9073 31.9223 65.7393 31.3449 67.4908C31.0178 68.4896 31.0269 69.1956 31.0439 70.5137C31.0518 71.1191 31.0612 71.8536 31.0406 72.805C31.0406 73.4644 30.5065 73.9985 29.8471 73.9985C29.1876 73.9985 28.6535 73.4644 28.6535 72.805C28.677 71.9501 28.6668 71.2414 28.6578 70.616C28.6365 69.135 28.622 68.1217 29.0772 66.7434C29.5755 65.2321 29.8321 63.6536 29.8396 62.0633C29.8396 60.5952 27.5003 55.0155 22.0668 52.7985C21.1895 52.442 20.3794 51.9377 19.6723 51.3096L11.6667 44.1932C10.0778 42.7819 7.58932 44.2574 8.41584 46.1133L17.5538 55.2527C18.0118 55.7271 17.9983 56.482 17.5239 56.9401C17.0614 57.3861 16.3274 57.3861 15.8649 56.9401L6.58975 47.6664C6.21528 47.1368 5.98105 46.5206 5.90944 45.8761C5.88577 45.5516 5.90294 45.7661 5.90978 45.8516L5.91226 45.8822L5.89483 45.6564C5.84185 44.9717 5.6449 42.4263 5.00385 34.102C4.85764 32.2341 2.38705 31.6776 2.38705 32.8219V47.741C2.42435 49.2045 7.54755 55.7376 10.6089 59.6404C15.4651 65.8333 16.6855 67.5401 16.6855 68.6649V72.805C16.6855 73.4644 16.1514 73.9985 15.4919 73.9985C14.8325 73.9985 14.2984 73.4644 14.2984 72.805V68.747C13.9821 67.8041 11.0759 64.0923 8.72914 61.1084C3.2986 54.186 0 49.8282 0 47.741V32.8219C0 28.3507 7.00599 29.0966 7.38493 33.911L7.99661 41.8315C9.68993 40.8752 11.8025 41.108 13.2481 42.4074L21.2537 49.5238ZM66.0019 41.8315L66.6136 33.911H66.6151C66.9955 29.0966 74 28.3507 74 32.8219V47.741C74 49.8282 70.7014 54.186 65.2709 61.1084C62.9241 64.0923 60.0179 67.8041 59.7016 68.747V72.805C59.7016 73.4644 59.1675 73.9985 58.5081 73.9985C57.8486 73.9985 57.3145 73.4644 57.3145 72.805V68.6649C57.3145 67.5401 58.5364 65.8318 63.3911 59.6404C66.4525 55.7376 71.5742 49.2045 71.613 47.741V32.8219C71.613 31.6776 69.1424 32.2341 68.9962 34.102C68.2893 43.2922 68.1227 45.4388 68.0934 45.8141C68.1009 45.7202 68.1112 45.5929 68.0906 45.8761C68.019 46.5206 67.7847 47.1368 67.4103 47.6664L58.1351 56.9401C57.6726 57.3861 56.9386 57.3861 56.4761 56.9401C56.0017 56.482 55.9882 55.7271 56.4462 55.2527L65.5842 46.1133C66.4107 44.2574 63.9237 42.7819 62.3333 44.1932L54.3277 51.3096C53.6191 51.9377 52.8105 52.442 51.9332 52.7985C46.4982 55.0155 44.1604 60.5952 44.1604 62.0633C44.1679 63.6536 44.4245 65.2336 44.9228 66.7434C45.378 68.1207 45.3635 69.1344 45.3422 70.6158C45.3332 71.2413 45.323 71.9502 45.3465 72.805C45.3465 73.4644 44.8124 73.9985 44.1529 73.9985C43.4935 73.9985 42.9594 73.4644 42.9594 72.805C42.9388 71.8536 42.9482 71.1191 42.9561 70.5137C42.9731 69.1956 42.9822 68.4896 42.6551 67.4908C42.0792 65.7393 41.7808 63.9073 41.7734 62.0633C41.7734 59.3778 44.9526 53.0671 51.0351 50.5875C51.6602 50.3309 52.2376 49.9714 52.7448 49.5238L60.7504 42.4074C62.1961 41.108 64.3086 40.8767 66.0019 41.8315ZM31.8417 25.1968C30.9466 25.0461 30.3424 24.1987 30.4931 23.3036L30.4945 23.3021L31.2838 18.7055L27.9538 15.4561C27.6972 15.204 27.5286 14.8758 27.4764 14.5207C27.3436 13.6226 27.9643 12.7871 28.8624 12.6543L33.4724 11.9845L35.5342 7.80714C35.6938 7.48489 35.9549 7.22381 36.2772 7.06417C37.0903 6.66136 38.0749 6.99405 38.4777 7.80714L40.5396 11.9845L45.1466 12.6543C45.5031 12.7066 45.8328 12.8751 46.085 13.1332C46.719 13.7837 46.7056 14.8236 46.0566 15.4576L42.7222 18.707L43.5099 23.2976C43.5726 23.6557 43.5144 24.0242 43.3443 24.3449C42.9191 25.1476 41.9255 25.4549 41.1229 25.0312L36.9993 22.862L32.8801 25.0297C32.5608 25.1968 32.1968 25.2565 31.8417 25.1968ZM30.6958 14.7995L34.4302 14.2596C34.8196 14.2029 35.1553 13.9598 35.3283 13.6062L36.9993 10.2196L38.6702 13.6062C38.8433 13.9583 39.1804 14.2029 39.5683 14.2596L43.3041 14.8012L40.6007 17.4359C40.3187 17.7104 40.1904 18.1043 40.2576 18.4922L40.8976 22.213L37.5557 20.4555C37.2081 20.272 36.7919 20.272 36.4428 20.4555L33.1009 22.213L33.7409 18.4922C33.8066 18.1043 33.6783 17.7104 33.3978 17.4359L30.6958 14.7995ZM68.0309 11.9352C67.3715 11.9352 66.8373 12.4693 66.8373 13.1288C66.8373 13.7882 67.3715 14.3223 68.0309 14.3223H72.805C73.4644 14.3223 73.9985 13.7882 73.9985 13.1288C73.9985 12.4693 73.4644 11.9352 72.805 11.9352H68.0309ZM5.96762 14.3223H1.19352C0.534102 14.3223 0 13.7882 0 13.1288C0 12.4693 0.534102 11.9352 1.19352 11.9352H5.96762C6.62704 11.9352 7.16115 12.4693 7.16115 13.1288C7.16115 13.7882 6.62704 14.3223 5.96762 14.3223ZM67.276 6.25108L71.886 5.0128C72.5275 4.86212 72.9258 4.2206 72.7751 3.57908C72.6245 2.93756 71.9829 2.53922 71.3414 2.68991L71.3295 2.69287C71.3092 2.69789 71.2882 2.70307 71.2683 2.7093L66.6583 3.94758C66.0273 4.13855 65.6707 4.80394 65.8602 5.43501C66.0422 6.03774 66.6613 6.3958 67.2745 6.25258L67.276 6.25108ZM6.72103 6.25108L2.11105 5.0128H2.10955C1.53069 4.82482 1.18756 4.22955 1.31288 3.63279C1.44864 2.98679 2.0827 2.57503 2.7272 2.71079L7.33719 3.94609C7.36255 3.95206 7.38642 3.95803 7.41029 3.96548C8.04137 4.15645 8.39943 4.82184 8.20846 5.45291C8.0175 6.08399 7.35211 6.44205 6.72103 6.25108ZM66.5867 22.2921C66.6106 22.2995 66.6345 22.3055 66.6598 22.3114C68.2741 22.8306 69.9181 23.2573 71.5801 23.5885C72.2395 23.5885 72.7722 23.0529 72.7722 22.3935C72.7722 21.8534 72.4081 21.382 71.8875 21.2418L67.2775 20.0065C66.6464 19.8155 65.981 20.1735 65.79 20.8046C65.5991 21.4357 65.9571 22.1011 66.5882 22.2921H66.5867ZM1.31288 22.7322C1.1234 22.1011 1.47997 21.4357 2.11105 21.2447L2.10955 21.2462L6.71954 20.0079V20.0109C6.73946 20.0047 6.76042 19.9995 6.78068 19.9945C6.7847 19.9935 6.78869 19.9925 6.79265 19.9915C7.43417 19.8409 8.07568 20.2392 8.22637 20.8807C8.37705 21.5222 7.97871 22.1637 7.33719 22.3144L2.7272 23.5497C2.11403 23.693 1.49489 23.3349 1.31288 22.7322Z" fill="#EC5D25"/>
</svg>
