<svg width="60" height="155" viewBox="0 0 60 155" fill="none" xmlns="http://www.w3.org/2000/svg">
<path d="M58.3332 123.708L30 152.222L1.66679 123.708C1.28482 123.323 0.666281 123.323 0.286479 123.708C-0.095493 124.092 -0.095493 124.715 0.286479 125.097L30 155L59.7135 125.097C60.0955 124.712 60.0955 124.09 59.7135 123.708C59.3316 123.323 58.713 123.323 58.3332 123.708Z" fill="#D9D9D9" fill-opacity="0.5"/>
<path d="M58.3332 92.8524L30 121.366L1.66679 92.8524C1.28482 92.4679 0.666281 92.4679 0.286479 92.8524C-0.095493 93.2368 -0.095493 93.8592 0.286479 94.2415L30 124.145L59.7135 94.2415C60.0955 93.8571 60.0955 93.2346 59.7135 92.8524C59.3316 92.4679 58.713 92.4679 58.3332 92.8524Z" fill="#D9D9D9" fill-opacity="0.5"/>
<path d="M58.3332 61.9969L30 90.5109L1.66679 61.9969C1.28482 61.6125 0.666281 61.6125 0.286479 61.9969C-0.095493 62.3814 -0.095493 63.0038 0.286479 63.3861L30 93.2892L59.7135 63.3861C60.0955 63.0016 60.0955 62.3792 59.7135 61.9969C59.3316 61.6125 58.713 61.6125 58.3332 61.9969Z" fill="#D9D9D9" fill-opacity="0.5"/>
<path d="M58.3332 31.1437L30 59.6577L1.66679 31.1437C1.28482 30.7593 0.666281 30.7593 0.286479 31.1437C-0.095493 31.5281 -0.095493 32.1506 0.286479 32.5328L30 62.436L59.7135 32.5328C60.0955 32.1484 60.0955 31.5259 59.7135 31.1437C59.3316 30.7593 58.713 30.7593 58.3332 31.1437Z" fill="#D9D9D9" fill-opacity="0.5"/>
<path d="M30 31.5805L59.7135 1.67742C60.0955 1.29301 60.0955 0.670532 59.7135 0.288307C59.3316 -0.0961023 58.713 -0.0961023 58.3332 0.288307L30 28.8023L1.66679 0.288307C1.28482 -0.0961023 0.668451 -0.0961023 0.286479 0.288307C-0.095493 0.670532 -0.095493 1.29301 0.286479 1.67742L30 31.5805Z" fill="#D9D9D9" fill-opacity="0.5"/>
</svg>
