<svg width="32" height="32" viewBox="0 0 32 32" fill="none" xmlns="http://www.w3.org/2000/svg">
<g clip-path="url(#clip0_1400_1230)">
<path d="M23.6588 12.1242L15.9981 19.7849L8.33739 12.1242C8.02874 11.8155 7.52621 11.8155 7.21757 12.1242C6.90892 12.4328 6.90892 12.9354 7.21757 13.244L15.4362 21.4626C15.5905 21.6169 15.7923 21.6961 15.9941 21.6961C16.1959 21.6961 16.3977 21.6169 16.5521 21.4626L24.7707 13.244C25.0793 12.9354 25.0793 12.4328 24.7707 12.1242C24.462 11.8155 23.9595 11.8155 23.6509 12.1242H23.6588Z" fill="white"/>
<path d="M15.998 0C7.17794 0 0 7.17794 0 15.998C0 24.8181 7.17794 31.996 15.998 31.996C24.8181 31.996 31.996 24.8181 31.996 15.998C31.996 7.17794 24.8221 0 15.998 0ZM15.998 30.4172C8.04847 30.4172 1.58279 23.9515 1.58279 16.002C1.58279 8.05243 8.04847 1.58279 15.998 1.58279C23.9476 1.58279 30.4133 8.04847 30.4133 15.998C30.4133 23.9476 23.9476 30.4133 15.998 30.4133V30.4172Z" fill="white"/>
</g>
<defs>
<clipPath id="clip0_1400_1230">
<rect width="32" height="32" fill="white"/>
</clipPath>
</defs>
</svg>
