<svg width="21" height="37" viewBox="0 0 21 37" fill="none" xmlns="http://www.w3.org/2000/svg">
<path fill-rule="evenodd" clip-rule="evenodd" d="M17.4306 23.9871L17.4888 19.444C17.5824 9.26249 13.368 2.97354 11.6158 0.796284C11.4182 0.563142 11.1574 0.413504 10.8439 0.421808C10.5577 0.411598 10.2736 0.522302 10.0651 0.744854C8.21291 2.813 3.82004 8.82116 3.69904 19.0212L3.65973 23.5923L2.81292 24.1244C1.1998 25.1749 0.198425 26.9527 0.178471 28.943L0.130592 34.386C0.145075 34.7023 0.306864 35.0004 0.591307 35.185C0.879474 35.3161 1.21191 35.3358 1.4856 35.1506L4.21075 33.4294C4.98391 32.9064 5.86573 32.6766 6.80469 32.6936L7.09085 32.7038L7.08239 32.7503L7.05086 35.4311C7.06091 36.0356 7.54497 36.5743 8.16357 36.6041L12.6537 36.7254C13.2723 36.7552 13.7782 36.25 13.7956 35.6269L13.8271 32.9461L13.8082 32.9181L14.1217 32.9098C15.0265 32.9499 15.9194 33.2527 16.6849 33.7945L19.3804 35.7004C19.6602 35.878 19.9926 35.8977 20.2647 35.7544C20.5762 35.6252 20.7279 35.3187 20.7408 34.984L20.7887 29.5409C20.8323 27.5856 19.8653 25.7434 18.266 24.5734L17.4306 23.9871ZM10.7155 5.87851C12.1579 5.93192 13.3084 7.16093 13.3068 8.58856C13.2894 10.0371 12.086 11.1772 10.6694 11.1471C9.23173 11.1007 8.08119 9.87171 8.10546 8.41857C8.09552 6.98858 9.29893 5.84843 10.7155 5.87851Z" fill="#EC5D25"/>
</svg>
