<svg width="61" height="64" viewBox="0 0 61 64" fill="none" xmlns="http://www.w3.org/2000/svg">
<path fill-rule="evenodd" clip-rule="evenodd" d="M1.91915 41.1978C1.80555 41.223 1.69068 41.2356 1.57833 41.2356H1.57707C0.852509 41.2356 0.199898 40.7332 0.0370614 39.9973C-0.149759 39.1465 0.387982 38.3046 1.23877 38.1165C13.1044 35.501 21.2071 29.7133 25.3222 20.9151C28.0135 15.1615 28.4553 9.28045 28.4906 5.35343L25.7943 8.0497C25.1783 8.66571 24.1786 8.66571 23.5626 8.0497C22.9466 7.4337 22.9466 6.43396 23.5626 5.81795L28.9185 0.462003C29.5345 -0.154001 30.5343 -0.154001 31.1503 0.462003L36.5062 5.81669C37.1222 6.43269 37.1222 7.43244 36.5062 8.04844C36.1982 8.35644 35.7943 8.51044 35.3904 8.51044C34.9864 8.51044 34.5825 8.35644 34.2745 8.04844L31.6476 5.42159C31.6085 9.61748 31.1314 15.9441 28.1814 22.2506C23.6295 31.9855 14.7934 38.3601 1.91915 41.1978ZM60.0689 21.9843C60.0689 26.2774 56.5761 29.8168 52.2843 29.8737V29.8749L50.5814 29.8976V34.3359H58.4708C59.3418 34.3359 60.0487 35.0428 60.0487 35.9138V62.4221C60.0487 63.2931 59.3418 64 58.4708 64H1.66722C0.796232 64 0.0893431 63.2931 0.0893431 62.4221V51.0614C0.0893431 50.1904 0.796232 49.4835 1.66722 49.4835H19.0251V43.4876C19.0251 42.6166 19.732 41.9097 20.603 41.9097H37.9597V35.9138C37.9597 35.0428 38.6666 34.3359 39.5376 34.3359H47.4269V29.9178H45.8491C41.4992 29.9178 37.9597 26.3783 37.9597 22.0284V18.8727C37.9597 18.0017 38.6666 17.2948 39.5376 17.2948H42.6933C44.4681 17.2948 46.1078 17.883 47.4269 18.8765V15.2335L45.7216 13.5281C44.2661 12.0727 43.4646 10.1376 43.4646 8.07874C43.4646 6.01992 44.2661 4.08481 45.7216 2.62938L47.8889 0.462003C48.5049 -0.154001 49.5047 -0.154001 50.1207 0.462003L52.2881 2.62938C53.7435 4.08481 54.5451 6.01992 54.5451 8.07874C54.5451 10.1376 53.7435 12.0727 52.2881 13.5281L50.5827 15.2335V18.8916C51.9056 17.8894 53.5516 17.2935 55.3353 17.2935H58.491C59.362 17.2935 60.0689 18.0004 60.0689 18.8714V21.9843ZM19.0239 52.638H3.2451V60.843H19.0239V52.638ZM22.1796 45.0642V51.0601V60.843H37.9584V45.0642H22.1796ZM41.1142 60.843H56.893V37.4904H41.1142V60.843ZM55.3353 20.4493C52.7248 20.4493 50.6016 22.5725 50.6016 25.1829V26.7394L52.2426 26.7179C54.8177 26.6826 56.9131 24.5594 56.9131 21.9843V20.4493H55.3353ZM49.0048 3.80963L47.9533 4.86113C47.0937 5.72076 46.6203 6.86314 46.6203 8.07874C46.6203 9.29433 47.0937 10.4367 47.9533 11.2963L49.0048 12.3478L50.0563 11.2963C50.9159 10.4367 51.3893 9.29433 51.3893 8.07874C51.3893 6.86314 50.9159 5.72076 50.0563 4.86113L49.0048 3.80963ZM41.1142 22.0272C41.1142 24.6376 43.2374 26.7608 45.8478 26.7608H47.4257V25.1829C47.4257 22.5725 45.3025 20.4493 42.692 20.4493H41.1142V22.0272Z" fill="white"/>
</svg>
