<svg width="805" height="189" viewBox="0 0 805 189" fill="none" xmlns="http://www.w3.org/2000/svg">
<path d="M110.516 136.723C95.607 136.723 83.9501 133.583 75.5778 127.301C67.1734 121.02 62.9872 110.252 62.9872 95.0608C62.9872 79.8701 66.9801 68.461 75.0304 61.9553C83.0485 55.4816 94.7053 52.2447 109.969 52.2447C119.404 52.2447 128.323 53.1741 136.696 55.065C145.1 56.9558 153.633 59.744 162.296 63.5256V10.8708C153.988 7.66598 145.422 5.23033 136.535 3.53179C127.679 1.83325 117.375 1 105.686 1C70.9731 1 44.858 8.97995 27.3083 24.9398C9.75871 40.8997 1 64.2627 1 95.0608C1 125.859 9.91972 148.1 27.727 164.06C45.5664 180.02 71.7137 188 106.233 188C117.729 188 127.969 187.199 136.921 185.596C145.873 183.994 154.503 181.687 162.811 178.706V125.763C154.116 129.512 145.551 132.301 137.05 134.063C128.549 135.858 119.693 136.723 110.452 136.723H110.516Z" stroke="#FCCA46" stroke-opacity="0.4" stroke-miterlimit="10"/>
<path d="M294.707 67.1791H240.673V3.82022H179.813V185.18H240.673V121.821H294.707V185.18H355.535V3.82022H294.707V67.1791Z" stroke="#FCCA46" stroke-opacity="0.4" stroke-miterlimit="10"/>
<path d="M439 3.82022H378.172V185.18H439V3.82022Z" stroke="#FCCA46" stroke-opacity="0.4" stroke-miterlimit="10"/>
<path d="M597.623 13.1141C587.705 6.92888 575.114 3.82022 559.851 3.82022H461.67V185.18H522.498V140.697H558.724C572.667 140.697 584.742 137.749 594.95 131.82C605.126 125.923 613.047 117.783 618.715 107.463C624.382 97.144 627.216 85.5105 627.216 72.5311C627.216 59.5517 624.768 48.4631 619.842 38.0475C614.915 27.6319 607.541 19.3314 597.623 13.1141ZM559.98 87.8821C556.502 91.7279 551.35 93.6507 544.555 93.6507H522.498V50.8346H545.715C552.316 50.8346 557.21 52.7575 560.431 56.6033C563.651 60.449 565.228 65.769 565.228 72.4991C565.228 78.8766 563.49 84.0043 559.98 87.8501V87.8821Z" stroke="#FCCA46" stroke-opacity="0.4" stroke-miterlimit="10"/>
<path d="M771.187 124.353C780.622 118.905 788.447 111.534 794.662 102.24C800.877 92.9457 804 82.2096 804 69.9993C804 57.789 801.585 45.8672 796.787 35.9323C791.989 25.9974 784.615 18.1457 774.729 12.4091C764.811 6.67249 752.221 3.82022 736.957 3.82022H638.486V185.18H699.314V135.602H708.073C711.293 135.602 713.644 136.178 715.157 137.3C716.671 138.422 718.087 140.409 719.408 143.229L738.084 185.18H801.456L780.236 136.755C777.788 131.307 774.761 127.173 771.187 124.353ZM721.694 88.8756H699.346V50.8667H723.111C735.734 50.8667 742.077 57.2442 742.077 70.0314C742.077 82.8185 735.283 88.9076 721.694 88.9076V88.8756Z" stroke="#FCCA46" stroke-opacity="0.4" stroke-miterlimit="10"/>
</svg>
