<svg width="10" height="13" viewBox="0 0 10 13" fill="none" xmlns="http://www.w3.org/2000/svg">
<path d="M4.99849 12.0272C3.12028 10.8144 1.86159 8.7776 1.52614 6.504H0.651254C1.00484 9.1776 2.51284 11.5728 4.78543 12.9488C4.84436 12.984 4.91387 13 4.98489 13C5.07555 13 5.16772 12.9744 5.24025 12.9296C7.48716 11.5696 8.99214 9.1776 9.34421 6.504H8.46933C8.13388 8.7664 6.88425 10.7968 4.99396 12.0272H4.99849Z" fill="#EC5D25"/>
<path d="M7.28468 2.4192H5.26443L4.75068 1.3328C4.36386 0.5104 3.58265 0 2.71381 0C2.47658 0 2.28619 0.2032 2.28619 0.4528C2.28619 0.7024 2.47809 0.9056 2.71381 0.9056C3.25476 0.9056 3.74282 1.224 3.98459 1.7376L4.30644 2.4192H2.71381C1.21789 2.4192 0 3.7088 0 5.2944C0 5.5456 0.191901 5.7472 0.429133 5.7472H9.57087C9.80659 5.7472 10 5.544 10 5.2944C10 3.7104 8.78211 2.4208 7.28619 2.4208L7.28468 2.4192ZM0.906618 4.84C1.10154 3.9728 1.83741 3.328 2.71381 3.328H7.28468C8.16108 3.328 8.89846 3.9744 9.09187 4.84H0.906618Z" fill="#EC5D25"/>
</svg>
