<svg width="63" height="63" viewBox="0 0 63 63" fill="none" xmlns="http://www.w3.org/2000/svg">
<path fill-rule="evenodd" clip-rule="evenodd" d="M26.2675 10.9107L25.521 15.2655C25.4287 15.8044 25.6465 16.3397 26.0885 16.6608C26.5305 16.982 27.1073 17.0244 27.5909 16.7697L31.5018 14.7137L35.4128 16.7697C35.6232 16.8805 35.8512 16.9349 36.0782 16.9349C36.3726 16.9349 36.6651 16.8426 36.9152 16.6608C37.3581 16.3397 37.575 15.8044 37.4827 15.2655L36.7362 10.9107L39.8996 7.82655C40.2918 7.4445 40.4303 6.88434 40.2605 6.36386C40.0916 5.84338 39.6505 5.47148 39.1088 5.39304L34.7364 4.75721L32.7809 0.795483C32.5391 0.304535 32.0482 0 31.5009 0C30.9537 0 30.4637 0.304535 30.221 0.795483L28.2655 4.75721L23.8931 5.39304C23.3514 5.47148 22.9103 5.84338 22.7414 6.36386C22.5725 6.88434 22.7109 7.4445 23.1022 7.82655L26.2657 10.9107H26.2675ZM28.749 6.55304C29.2141 6.48567 29.6156 6.19406 29.8241 5.77232L31.5009 2.37445L33.1777 5.77232C33.3853 6.19406 33.7877 6.48567 34.2519 6.55304L38.0023 7.09844L35.2892 9.74328C34.9523 10.0709 34.7991 10.5434 34.8785 11.0066L35.5189 14.7413L32.1644 12.9778C31.9568 12.8689 31.7289 12.8145 31.5009 12.8145C31.273 12.8145 31.045 12.8689 30.8365 12.9787L27.482 14.7423L28.1224 11.0076C28.2018 10.5443 28.0486 10.0718 27.7118 9.7442L24.9977 7.09936L28.7472 6.55489L28.749 6.55304ZM6.94155 21.1024L6.32787 24.6793C6.23559 25.2183 6.45245 25.7526 6.89541 26.0737C7.33745 26.3949 7.9133 26.4364 8.39686 26.1826L11.6092 24.4938L14.8216 26.1826C15.032 26.2934 15.26 26.3478 15.4861 26.3478C15.7805 26.3478 16.073 26.2555 16.3231 26.0737C16.7651 25.7526 16.9829 25.2183 16.8897 24.6793L16.276 21.1024L18.8747 18.5693C19.266 18.1881 19.4044 17.628 19.2355 17.1075C19.0667 16.5879 18.6256 16.216 18.0848 16.1376L14.4931 15.6153L12.8864 12.3604C12.6447 11.8704 12.1546 11.5659 11.6074 11.5659C11.0602 11.5659 10.5711 11.8704 10.3293 12.3604L8.72355 15.6153L5.13188 16.1376C4.5911 16.216 4.14998 16.5879 3.9811 17.1075C3.81223 17.627 3.95065 18.1872 4.34193 18.5693L6.94063 21.1024H6.94155ZM9.20803 17.4102C9.67222 17.3428 10.0737 17.0512 10.2813 16.6304L11.6083 13.9403L12.9354 16.6304C13.143 17.0512 13.5444 17.3428 14.0086 17.4102L16.9764 17.8411L14.829 19.9341C14.4931 20.2617 14.339 20.7333 14.4184 21.1966L14.9259 24.1524L12.2709 22.7562C12.0633 22.6473 11.8353 22.5928 11.6074 22.5928C11.3795 22.5928 11.1515 22.6473 10.9439 22.7562L8.28889 24.1515L8.79645 21.1947C8.87581 20.7324 8.72262 20.2608 8.38671 19.9332L6.23928 17.8393L9.20711 17.4083L9.20803 17.4102ZM47.1079 30.9749L47.5342 28.4916H47.5352L45.731 26.7326C45.3425 26.3534 45.205 25.7978 45.373 25.281C45.5409 24.7642 45.9793 24.3951 46.5164 24.3167L49.0098 23.954L50.1246 21.6949C50.3646 21.2076 50.8518 20.905 51.3945 20.905C51.9371 20.905 52.4243 21.2076 52.6643 21.6949L53.7791 23.954L56.2726 24.3167C56.8106 24.3951 57.248 24.7642 57.4159 25.281C57.5839 25.7969 57.4464 26.3534 57.0579 26.7326L55.2537 28.4916L55.6801 30.9749C55.7715 31.5102 55.5555 32.0408 55.1162 32.3601C54.868 32.541 54.5773 32.6323 54.2848 32.6323C54.0596 32.6323 53.8335 32.5779 53.624 32.4681L51.3935 31.2951L49.163 32.4681C48.6822 32.7209 48.1101 32.6794 47.6708 32.3601C47.2315 32.0408 47.0156 31.5102 47.1079 30.9749ZM50.563 24.9737C50.3563 25.3927 49.9576 25.6825 49.4962 25.7489L47.6404 26.0184L48.9831 27.3279C49.3172 27.6527 49.4694 28.1215 49.391 28.5811L49.0735 30.4304L50.7337 29.5574C51.1471 29.3406 51.6399 29.3406 52.0524 29.5574L53.7126 30.4304L53.3952 28.582C53.3167 28.1215 53.469 27.6536 53.803 27.3279L55.1458 26.0184L53.29 25.7489C52.8285 25.6815 52.4299 25.3918 52.2232 24.9737L51.3926 23.2914L50.563 24.9737ZM27.8096 46.3687C27.8096 48.4045 29.4652 50.06 31.5009 50.06C33.5367 50.06 35.1923 48.4045 35.1923 46.3687C35.1923 44.3329 33.5367 42.6774 31.5009 42.6774C29.4652 42.6774 27.8096 44.3329 27.8096 46.3687ZM33.3466 46.3687C33.3466 47.3866 32.5188 48.2144 31.5009 48.2144C30.483 48.2144 29.6553 47.3866 29.6553 46.3687C29.6553 45.3508 30.483 44.523 31.5009 44.523C32.5188 44.523 33.3466 45.3508 33.3466 46.3687ZM51.3935 42.6774C53.4293 42.6774 55.0849 44.3329 55.0849 46.3687C55.0849 48.4045 53.4293 50.06 51.3935 50.06C49.3578 50.06 47.7022 48.4045 47.7022 46.3687C47.7022 44.3329 49.3578 42.6774 51.3935 42.6774ZM51.3935 44.523C50.3756 44.523 49.5479 45.3508 49.5479 46.3687C49.5479 47.3866 50.3756 48.2144 51.3935 48.2144C52.4114 48.2144 53.2392 47.3866 53.2392 46.3687C53.2392 45.3508 52.4114 44.523 51.3935 44.523ZM15.3006 46.3687C15.3006 44.3329 13.645 42.6774 11.6092 42.6774C9.57348 42.6774 7.91791 44.3329 7.91791 46.3687C7.91791 48.4045 9.57348 50.06 11.6092 50.06C13.645 50.06 15.3006 48.4045 15.3006 46.3687ZM9.76358 46.3687C9.76358 45.3508 10.5914 44.523 11.6092 44.523C12.6271 44.523 13.4549 45.3508 13.4549 46.3687C13.4549 47.3866 12.6271 48.2144 11.6092 48.2144C10.5914 48.2144 9.76358 47.3866 9.76358 46.3687ZM60.3755 56.1507H60.847C62.0338 56.1507 63 57.116 63 58.3037V60.7649C63 61.9517 62.0347 62.9179 60.847 62.9179H23.8802C23.3708 62.9179 22.9573 62.5044 22.9573 61.995C22.9573 61.4856 23.3708 61.0722 23.8802 61.0722H60.847C61.0159 61.0722 61.1543 60.9347 61.1543 60.7649V58.3037C61.1543 58.1348 61.0168 57.9964 60.847 57.9964H2.15482C1.98594 57.9964 1.84751 58.1339 1.84751 58.3037V60.7649C1.84751 60.9338 1.98502 61.0722 2.15482 61.0722H19.5585C20.0679 61.0722 20.4814 61.4856 20.4814 61.995C20.4814 62.5044 20.0679 62.9179 19.5585 62.9179H2.15297C0.966207 62.9179 0 61.9526 0 60.7649V58.3037C0 57.1169 0.965284 56.1507 2.15297 56.1507H2.62454V40.7136C2.62454 40.2042 3.03797 39.7907 3.54737 39.7907C4.05678 39.7907 4.47021 40.2042 4.47021 40.7136V56.1507H6.28265V54.8625C6.28265 53.2595 7.58661 51.9555 9.18958 51.9555H14.0252C15.6282 51.9555 16.9322 53.2595 16.9322 54.8625V56.1507H18.7446V31.9725C18.7446 31.1244 18.0543 30.4341 17.2062 30.4341H6.00949C5.16141 30.4341 4.47113 31.1244 4.47113 31.9725V36.4095C4.47113 36.9189 4.0577 37.3323 3.5483 37.3323C3.03889 37.3323 2.62546 36.9189 2.62546 36.4095V31.9725C2.62546 30.1065 4.14352 28.5885 6.00949 28.5885H17.2062C19.0722 28.5885 20.5903 30.1065 20.5903 31.9725V56.1507H22.5181V22.6214C22.5181 20.7555 24.0361 19.2374 25.9021 19.2374H37.0988C38.9648 19.2374 40.4829 20.7555 40.4829 22.6214V29.1588C40.4829 29.6682 40.0694 30.0816 39.56 30.0816C39.0506 30.0816 38.6372 29.6682 38.6372 29.1588V22.6214C38.6372 21.7733 37.9469 21.0831 37.0988 21.0831H25.9021C25.054 21.0831 24.3637 21.7733 24.3637 22.6214V56.1507H26.1762V54.8625C26.1762 53.2595 27.4792 51.9555 29.0822 51.9555H33.9178C35.5199 51.9555 36.8238 53.2595 36.8238 54.8625V56.1507H38.6363V33.5044C38.6363 32.995 39.0497 32.5816 39.5591 32.5816C40.0685 32.5816 40.4819 32.995 40.4819 33.5044V56.1507H42.4097V52.0866C42.4097 51.5772 42.8232 51.1637 43.3326 51.1637C43.842 51.1637 44.2554 51.5772 44.2554 52.0866V56.1507H46.0678V54.8625C46.0678 53.2595 47.3718 51.9555 48.9748 51.9555H53.8104C55.4134 51.9555 56.7174 53.2595 56.7174 54.8625V56.1507H58.5298V38.2478C58.5298 37.3997 57.8395 36.7094 56.9914 36.7094H45.7947C44.9466 36.7094 44.2563 37.3997 44.2563 38.2478V47.8295C44.2563 48.339 43.8429 48.7524 43.3335 48.7524C42.8241 48.7524 42.4107 48.339 42.4107 47.8295V38.2478C42.4107 36.3818 43.9287 34.8637 45.7947 34.8637H56.9914C58.8574 34.8637 60.3755 36.3818 60.3755 38.2478V56.1507ZM48.9766 53.8021C48.3915 53.8021 47.9154 54.2783 47.9154 54.8634H47.9163V56.1517H54.8735V54.8634C54.8735 54.2783 54.3973 53.8021 53.8123 53.8021H48.9766ZM29.0831 53.8021C28.4989 53.8021 28.0228 54.2783 28.0228 54.8634V56.1517H34.9791V54.8634C34.9791 54.2783 34.5038 53.8021 33.9187 53.8021H29.0831ZM9.19142 53.8021C8.60635 53.8021 8.13016 54.2783 8.13016 54.8634H8.13109V56.1517H15.0883V54.8634C15.0883 54.2783 14.6121 53.8021 14.0271 53.8021H9.19142Z" fill="#EC5D25"/>
</svg>
