<svg width="27" height="33" viewBox="0 0 27 33" fill="none" xmlns="http://www.w3.org/2000/svg">
<path d="M13.4959 30.5306C8.42475 27.4519 5.02629 22.2816 4.12058 16.5102H1.75839C2.71306 23.297 6.78468 29.3771 12.9207 32.87C13.0798 32.9594 13.2675 33 13.4592 33C13.704 33 13.9529 32.935 14.1487 32.8213C20.2153 29.369 24.2788 23.297 25.2294 16.5102H22.8672C21.9615 22.2532 18.5875 27.4073 13.4837 30.5306H13.4959Z" fill="#EDEDED"/>
<path d="M19.6686 6.14105H14.214L12.8268 3.38326C11.7824 1.29563 9.67316 0 7.32729 0C6.68676 0 6.17271 0.515815 6.17271 1.14942C6.17271 1.78302 6.69084 2.29883 7.32729 2.29883C8.78785 2.29883 10.1056 3.10708 10.7584 4.41083L11.6274 6.14105H7.32729C3.2883 6.14105 0 9.41465 0 13.4396C0 14.0773 0.518132 14.589 1.15866 14.589H25.8413C26.4778 14.589 27 14.0732 27 13.4396C27 9.41871 23.7117 6.14511 19.6727 6.14511L19.6686 6.14105ZM2.44787 12.2862C2.97416 10.0848 4.96101 8.448 7.32729 8.448H19.6686C22.0349 8.448 24.0258 10.0889 24.548 12.2862H2.44787Z" fill="#EDEDED"/>
</svg>
