<svg width="77" height="77" viewBox="0 0 77 77" fill="none" xmlns="http://www.w3.org/2000/svg">
<path fill-rule="evenodd" clip-rule="evenodd" d="M40.4484 0.286802C50.2121 0.286802 59.3913 4.08848 66.2948 10.992H66.2917C73.1952 17.8955 76.9969 27.0731 76.9969 36.8369C76.9969 44.7068 74.5357 52.2026 69.8767 58.5169C65.4703 64.4898 59.4848 68.9119 52.5299 71.3435V73.7454C52.5299 75.5395 51.0694 77 49.2753 77C47.4813 77 46.0207 75.5395 46.0207 73.7454V72.9645C44.183 73.2451 42.3141 73.39 40.4468 73.39C38.5795 73.39 36.7106 73.2451 34.8729 72.9645V73.7454C34.8729 75.5395 33.4124 77 31.6183 77C29.8243 77 28.3637 75.5395 28.3637 73.7454V71.345C21.4104 68.9134 15.4249 64.4914 11.0169 58.5184C6.35951 52.2041 3.89676 44.7083 3.89676 36.8384C3.89676 33.5994 4.32229 30.3901 5.15775 27.2914C1.99202 24.4218 0 20.2772 0 15.6775C0 7.03288 7.03287 0 15.6774 0C19.3965 0 22.8163 1.30308 25.5066 3.47435C30.2139 1.36075 35.2361 0.286802 40.4484 0.286802ZM15.6774 2.18219C8.23619 2.18219 2.18219 8.23619 2.18219 15.6775C2.18219 23.1187 8.23619 29.1727 15.6774 29.1727C23.1187 29.1727 29.1727 23.1187 29.1727 15.6775C29.1727 8.23619 23.1187 2.18219 15.6774 2.18219ZM6.07895 36.8384C6.07895 51.2611 14.9729 64.0082 28.3653 69.0226L28.3669 69.0241V56.9691C21.3231 52.7325 16.9727 45.0793 16.9727 36.8384C16.9727 34.9368 17.2003 33.0586 17.6477 31.2318C17.0023 31.3128 16.3446 31.3549 15.6774 31.3549C12.4868 31.3549 9.51589 30.3947 7.03755 28.7519C6.4016 31.3876 6.07895 34.1013 6.07895 36.8384ZM32.6938 49.9565C32.6938 49.52 32.9526 49.1273 33.3532 48.9542H33.3516C35.8486 47.8818 37.5913 44.5961 37.5913 40.9643C37.5913 36.3583 34.9119 32.6112 31.6199 32.6112C28.3279 32.6112 25.6485 36.3583 25.6485 40.9643C25.6485 44.5961 27.3927 47.8818 29.8882 48.9542C30.2887 49.1257 30.549 49.52 30.549 49.9565V73.7454C30.549 74.3362 31.0307 74.8178 31.6214 74.8178C32.2122 74.8178 32.6938 74.3362 32.6938 73.7454V49.9565ZM34.8745 70.7558C38.5421 71.3513 42.3562 71.3513 46.0223 70.7558V59.6454C44.2049 60.0881 42.3375 60.3156 40.4484 60.3156C38.5592 60.3156 36.6903 60.0881 34.8745 59.6454V70.7558ZM40.4484 58.1334C42.3422 58.1334 44.2142 57.8856 46.0223 57.3962H46.0207V49.5933C43.1714 48.7454 41.1217 46.0784 41.1217 43.0405V31.5186C41.1217 30.9153 41.6096 30.4275 42.2128 30.4275C42.8161 30.4275 43.3039 30.9153 43.3039 31.5186V41.9494H45.8306V31.5186C45.8306 30.9153 46.3185 30.4275 46.9217 30.4275C47.5249 30.4275 48.0128 30.9153 48.0128 31.5186V41.9494H50.5394V31.5186C50.5394 30.9153 51.0273 30.4275 51.6305 30.4275C52.2337 30.4275 52.7216 30.9153 52.7216 31.5186V41.9494H55.2483V31.5186C55.2483 30.9153 55.7362 30.4275 56.3394 30.4275C56.9426 30.4275 57.4305 30.9153 57.4305 31.5186V43.0623V43.0779C57.4133 46.1002 55.3699 48.7485 52.533 49.5917V54.3707C58.2566 50.4163 61.7434 43.8619 61.7434 36.8369C61.7434 25.0951 52.1901 15.5418 40.4484 15.5418C37.2125 15.5418 34.1138 16.2464 31.2318 17.6352C30.4477 23.8918 25.9633 29.0137 20.0449 30.733C19.4557 32.7063 19.1534 34.756 19.1534 36.8369C19.1534 43.8619 22.6402 50.4179 28.3653 54.3707V50.633C25.4084 48.9823 23.4663 45.204 23.4663 40.9628C23.4663 35.1535 27.1246 30.4275 31.6199 30.4275C36.1152 30.4275 39.7735 35.1535 39.7735 40.9628C39.7735 45.204 37.8329 48.9823 34.8745 50.633V57.3962C36.6841 57.8856 38.5546 58.1334 40.4484 58.1334ZM50.3508 48.7189C50.3508 48.1796 50.7467 47.7197 51.2814 47.6402C53.1736 47.3597 54.6762 45.9303 55.1173 44.1316H43.438C43.8791 45.9303 45.3817 47.3597 47.2739 47.6402C47.8101 47.7182 48.206 48.178 48.206 48.7189V73.7439C48.206 74.3346 48.6877 74.8163 49.2784 74.8163C49.8692 74.8163 50.3508 74.3346 50.3508 73.7439V48.7189ZM52.533 69.0204V56.9675C59.5768 52.731 63.9256 45.0777 63.9256 36.8384C63.9256 23.8934 53.3934 13.3612 40.4484 13.3612C37.3232 13.3612 34.2104 13.9925 31.3455 15.1958C31.2271 11.3131 29.6918 7.78105 27.2384 5.10164C31.4188 3.35589 35.8549 2.46899 40.4468 2.46899C59.3975 2.46899 74.8162 17.8861 74.8162 36.8369C74.8162 51.259 65.923 64.0057 52.533 69.0204ZM15.6774 27.0747C21.9621 27.0747 27.0747 21.9621 27.0747 15.6774C27.0747 9.39275 21.9606 4.2802 15.6774 4.2802C9.39431 4.2802 4.2802 9.39275 4.2802 15.6774C4.2802 21.9621 9.39275 27.0747 15.6774 27.0747ZM15.6774 6.46239C20.7588 6.46239 24.8925 10.5961 24.8925 15.6774C24.8925 20.7588 20.7588 24.8925 15.6774 24.8925C10.5961 24.8925 6.46239 20.7588 6.46239 15.6774C6.46239 10.5961 10.5961 6.46239 15.6774 6.46239ZM12.2826 20.1634C12.5616 20.1634 12.8406 20.0574 13.0542 19.8439L15.8255 17.0725C16.5301 16.9992 17.0803 16.4022 17.0803 15.6774C17.0803 15.3439 16.9634 15.0368 16.7685 14.7968V9.61097C16.7685 9.00775 16.2807 8.51988 15.6775 8.51988C15.0742 8.51988 14.5864 9.00775 14.5864 9.61097V14.7968C14.4211 15.001 14.312 15.2535 14.2824 15.5294L11.511 18.3007C11.0855 18.7263 11.0855 19.4168 11.511 19.8439C11.7246 20.0574 12.0036 20.1634 12.2826 20.1634Z" fill="#EC5D25"/>
</svg>
