<svg width="64" height="64" viewBox="0 0 64 64" fill="none" xmlns="http://www.w3.org/2000/svg">
<path fill-rule="evenodd" clip-rule="evenodd" d="M62.8638 8.99016C63.0513 9.3516 62.9078 9.88472 61.0884 16.6439C60.4493 19.0181 59.6035 22.1604 58.4926 26.3332H58.4939C59.5647 27.034 60.4226 27.5883 61.111 28.0331L61.1111 28.0332C63.868 29.8145 63.904 29.8378 64 30.4669V58.6664C64 61.6125 61.6113 64 58.6664 64H5.33365C2.38745 64 0 61.6113 0 58.6664C0 30.8236 0 30.598 0.0337002 30.3776L0.0345339 30.3722L0.0345364 30.3721C0.036269 30.3609 0.0380884 30.3491 0.0399992 30.3332C0.165634 29.7992 0.241943 29.75 2.81137 28.0947L2.8116 28.0946L2.81213 28.0942C3.51476 27.6415 4.40378 27.0688 5.53114 26.3332L1.10498 9.82731C1.10498 9.82543 1.10435 9.82356 1.10373 9.82168C1.1031 9.81981 1.10248 9.81793 1.10248 9.81606C0.914982 9.10482 1.33997 8.37484 2.05246 8.18734L15.9984 4.45366V1.33372C15.9984 0.597488 16.5959 0 17.3322 0H46.6653C47.4016 0 47.9991 0.597488 47.9991 1.33372V4.45366C51.5252 5.39918 54.188 6.10369 56.2034 6.63692L56.2035 6.63693C61.8896 8.1413 62.4231 8.28247 62.6523 8.62644C62.676 8.66207 62.6965 8.69987 62.7191 8.74159C62.7314 8.76433 62.7443 8.78823 62.7588 8.81358C62.7763 8.84436 62.7933 8.87162 62.8092 8.89727L62.8093 8.89738C62.8293 8.92957 62.8478 8.95924 62.8638 8.99016ZM56.6789 32.9719L60.2251 30.6657L60.2263 30.6644L57.7326 29.0382L56.6789 32.9719ZM59.9988 10.426H59.9963C59.9837 10.4754 59.9525 10.5936 59.927 10.6903C59.8796 10.8706 59.8516 10.9766 59.9988 10.426ZM51.079 13.5597L47.9991 12.7335H47.9978V38.6655L53.3315 35.1593C58.8988 14.4522 59.9051 10.736 59.9938 10.4248L47.9978 7.21236V9.97231L52.784 11.266C52.785 11.266 52.786 11.2662 52.7871 11.2665C52.7879 11.2667 52.7887 11.267 52.7896 11.2673C52.7915 11.2679 52.7933 11.2685 52.7952 11.2685C53.5065 11.4623 53.9252 12.196 53.7314 12.906V12.9072C53.5365 13.6185 53.9552 14.351 54.6652 14.546C54.676 14.5476 54.6869 14.5504 54.6977 14.5532L54.7139 14.5572C55.4264 14.7447 55.8527 15.4734 55.6652 16.1859L53.5989 23.9058C53.4077 24.6195 52.6727 25.0433 51.959 24.852C51.2452 24.6608 50.8215 23.9258 51.0128 23.212L52.799 16.5459C51.814 15.8522 51.1852 14.7597 51.079 13.5597ZM45.3316 2.6662H18.6659H18.6646V40.3717L31.9981 49.0778L45.3316 40.3717V2.6662ZM15.9997 7.21236L3.99992 10.426C4.76527 13.1931 7.46542 23.2464 9.24216 29.8617L9.24372 29.8675L9.24385 29.868C9.88062 32.2388 10.3986 34.1673 10.666 35.1593L15.9997 38.6655V12.7323L12.9197 13.546C12.8135 14.746 12.1848 15.8384 11.1998 16.5322L12.986 23.1983C13.1772 23.912 12.7535 24.647 12.0398 24.8383C11.326 25.0295 10.591 24.6058 10.3998 23.892L8.38609 16.1722C8.19984 15.4622 8.62233 14.7347 9.33232 14.546C10.0023 14.3285 10.3873 13.6285 10.2123 12.946C10.2123 12.9441 10.2117 12.9422 10.2111 12.9404C10.2104 12.9385 10.2098 12.9366 10.2098 12.9347C10.0223 12.2235 10.4473 11.4935 11.1598 11.306L15.9997 9.97231V7.21236ZM6.2666 29.0412L3.77368 30.6669L7.31986 32.9731L6.2666 29.0412ZM18.6659 43.5191L2.6662 33.1331C2.6662 58.659 2.6662 58.9632 2.73847 59.2491L2.74112 59.2595C2.74693 59.2822 2.7532 59.3067 2.75995 59.3451L18.6659 43.5191ZM20.8796 44.9991L4.65366 61.2388H4.65241C5.1999 61.3326 58.6651 61.4126 59.3451 61.2388L43.1192 44.9991L32.7331 51.7852C31.9279 52.3117 31.7222 52.1751 26.6698 48.819C25.1967 47.8405 23.3117 46.5883 20.8796 44.9991ZM45.3991 43.5191L61.3051 59.3451V59.3463C61.3119 59.3074 61.3183 59.2829 61.3241 59.2603L61.3242 59.2603L61.3267 59.2503C61.3988 58.97 61.3988 58.6711 61.3988 33.1331L45.3991 43.5191ZM23.9995 17.3322C23.9995 18.0684 23.402 18.6659 22.6658 18.6659H22.6646C21.9283 18.6659 21.3308 18.0684 21.3308 17.3322V9.33232C21.3308 8.59608 21.9283 7.99859 22.6646 7.99859C23.4008 7.99859 23.9983 7.40111 23.9983 6.66487C23.9983 5.92863 24.5958 5.33115 25.332 5.33115H38.6655C39.4017 5.33115 39.9992 5.92863 39.9992 6.66487C39.9992 7.40111 40.5967 7.99859 41.3329 7.99859C42.0692 7.99859 42.6667 8.59608 42.6667 9.33232V17.3322C42.6667 18.0684 42.0692 18.6659 41.3329 18.6659C40.5967 18.6659 39.9992 18.0684 39.9992 17.3322V10.4385C38.8592 10.0361 37.9618 9.13857 37.5593 7.99859H26.4395C26.037 9.13857 25.1395 10.0361 23.9995 10.4385V17.3322ZM42.6654 29.3332C42.6654 23.442 37.8893 18.6671 31.9994 18.6671C26.1095 18.6671 21.3333 23.4433 21.3333 29.3332C21.3333 35.2231 26.1095 39.9992 31.9994 39.9992C37.8893 39.9992 42.6654 35.2231 42.6654 29.3332ZM23.9995 29.3332C23.9995 24.9145 27.5807 21.3333 31.9994 21.3333C36.418 21.3333 39.9992 24.9145 39.9992 29.3332C39.9992 33.7518 36.418 37.333 31.9994 37.333C27.5807 37.333 23.9995 33.7518 23.9995 29.3332ZM30.7669 13.846C30.4869 13.1647 30.8119 12.386 31.4931 12.106C31.6519 12.041 31.8219 12.006 31.9931 12.006C32.7294 12.0023 33.3294 12.596 33.3331 13.3322C33.3356 13.876 33.0094 14.366 32.5069 14.5722C31.8256 14.8522 31.0469 14.5272 30.7669 13.846Z" fill="white"/>
</svg>
