<svg width="62" height="24" viewBox="0 0 62 24" fill="none" xmlns="http://www.w3.org/2000/svg">
<path d="M61.6129 11.0533L50.9348 0.386643C50.4142 -0.133357 49.5733 -0.133357 49.0527 0.386643C48.5322 0.906643 48.5322 1.74664 49.0527 2.26664L57.4484 10.6533H1.33477C0.600646 10.6533 0 11.2533 0 11.9866C0 12.72 0.600646 13.32 1.33477 13.32H57.4484L49.0527 21.7066C48.5322 22.2266 48.5322 23.0666 49.0527 23.5866C49.3197 23.8533 49.6534 23.9733 50.0004 23.9733C50.3475 23.9733 50.6812 23.84 50.9481 23.5866L61.6263 12.92C62.1468 12.4 62.1468 11.56 61.6263 11.04L61.6129 11.0533Z" fill="#D8D8D8"/>
</svg>
