<svg width="79" height="72" viewBox="0 0 79 72" fill="none" xmlns="http://www.w3.org/2000/svg">
<path fill-rule="evenodd" clip-rule="evenodd" d="M33.7905 7.67752C29.867 6.38304 25.7835 5.76427 21.6553 5.83816H21.6568C21.1042 5.84431 20.6317 5.47336 20.5101 4.93925C20.3885 4.40668 20.6594 3.86026 21.1566 3.63399C24.9277 1.91468 28.942 0.784896 33.0871 0.273874C34.1722 0.139962 35.2882 0.047609 36.4056 0.00143239C36.8012 -0.0185775 37.1783 0.172286 37.403 0.497061C37.6278 0.823376 37.6709 1.2405 37.517 1.6053L35.2158 7.03259C35.0296 7.46819 34.6047 7.73601 34.1522 7.73601C34.0322 7.73601 33.9106 7.71754 33.7905 7.67752ZM34.6602 2.42724C34.2261 2.46572 33.7951 2.5119 33.3703 2.56423V2.5627C31.28 2.81974 29.2252 3.24457 27.2226 3.83101C29.3452 4.10191 31.4417 4.54521 33.4996 5.16398L34.6602 2.42724ZM16.4604 44.9343C23.9687 44.9343 30.0764 38.8267 30.0764 31.3184V25.3108C30.0764 25.1892 30.0748 25.0676 30.0717 24.9476C30.0717 24.9214 30.0702 24.8968 30.0687 24.8722C30.0656 24.7752 30.0625 24.6798 30.0564 24.5828C30.0564 24.5678 30.0551 24.5529 30.0537 24.5375C30.053 24.5291 30.0523 24.5206 30.0517 24.512C30.0456 24.4119 30.0394 24.3134 30.0317 24.2149C30.0317 24.2106 30.0315 24.2063 30.0312 24.2021C30.0307 24.1951 30.0298 24.1881 30.029 24.181C30.0283 24.1754 30.0276 24.1698 30.0271 24.1641C30.0179 24.0579 30.0086 23.9532 29.9963 23.847C29.9963 23.8436 29.996 23.8402 29.9956 23.8367L29.9948 23.8309L29.994 23.8255C29.9936 23.8219 29.9932 23.8183 29.9932 23.8147C29.9809 23.7023 29.9671 23.59 29.9517 23.4776V23.4776L29.9516 23.4739L29.9515 23.4714C29.9513 23.4695 29.9509 23.4676 29.9501 23.4653C29.7685 22.1277 29.393 20.8517 28.8511 19.6665C28.842 19.6462 28.8322 19.6259 28.8226 19.606L28.808 19.5757L28.7847 19.5255C28.7601 19.4724 28.7352 19.419 28.7095 19.3664L28.631 19.2094L28.6071 19.1627L28.5964 19.1416C28.5849 19.1189 28.5733 19.0962 28.5618 19.0739C28.5264 19.0063 28.4911 18.9402 28.4557 18.8741L28.4556 18.8738C28.4479 18.86 28.4406 18.8461 28.4332 18.8323L28.4229 18.8127L28.4109 18.7907C28.3678 18.7122 28.3232 18.6337 28.2786 18.5552L28.275 18.5484L28.2685 18.5375C28.2651 18.5317 28.2616 18.5259 28.2585 18.5198C27.5043 17.213 26.5315 16.0247 25.3633 15.015C25.3494 15.0011 25.334 14.9873 25.3186 14.975C25.2851 14.9461 25.2509 14.9183 25.2169 14.8906L25.2169 14.8906L25.2169 14.8906L25.2168 14.8905L25.2166 14.8903L25.2166 14.8903L25.2165 14.8903C25.1945 14.8724 25.1726 14.8545 25.1509 14.8364L25.0447 14.7487C24.9292 14.6548 24.8138 14.564 24.6952 14.4747L24.6411 14.4339C24.5914 14.3963 24.5414 14.3585 24.4905 14.3223C24.4167 14.2685 24.3428 14.2146 24.2689 14.1623C24.1596 14.0853 24.0488 14.0099 23.9364 13.936C23.9179 13.9237 23.8991 13.9114 23.8802 13.8991L23.8522 13.8807L23.8241 13.8621C23.6778 13.7667 23.5285 13.6759 23.3777 13.5866C23.3655 13.5799 23.3533 13.5725 23.3417 13.5654L23.3284 13.5573C21.643 12.5676 19.7266 11.9319 17.681 11.7488C17.6733 11.7488 17.6656 11.7488 17.6579 11.7472C17.4686 11.7303 17.2793 11.718 17.0869 11.7087C17.0769 11.7087 17.0669 11.7084 17.0569 11.708C17.0469 11.7076 17.0369 11.7072 17.0269 11.7072C16.8391 11.6995 16.6497 11.6949 16.4589 11.6949C13.1003 11.6949 9.8741 12.9278 7.3744 15.1689C6.90032 15.5937 6.8603 16.3249 7.28513 16.7989C7.70995 17.273 8.44108 17.313 8.91516 16.8882C10.99 15.0288 13.6698 14.0053 16.4589 14.0053C16.639 14.0053 16.8191 14.0099 16.9976 14.0191C17.0438 14.021 17.09 14.0245 17.1361 14.028C17.1669 14.0303 17.1977 14.0327 17.2285 14.0345C17.3255 14.0407 17.424 14.0484 17.5209 14.0576C17.621 14.0668 17.721 14.0791 17.8211 14.0915C17.8904 14.0992 17.9596 14.1084 18.0273 14.1176L18.0495 14.1209C18.1577 14.1367 18.2672 14.1528 18.3752 14.1715C18.3983 14.1753 18.4217 14.1796 18.4451 14.1838L18.4452 14.1838L18.4455 14.1838C18.4689 14.1881 18.4923 14.1923 18.5153 14.1961C18.6461 14.2208 18.7769 14.2469 18.9062 14.2746L18.9146 14.2764L18.9289 14.2795L18.9409 14.2823L18.9593 14.2866L18.9755 14.29C19.9006 14.5024 20.7949 14.8303 21.6368 15.2643C21.6545 15.2736 21.6718 15.2824 21.6891 15.2912L21.7218 15.308L21.7415 15.3182C21.84 15.3705 21.9385 15.426 22.0355 15.4814C22.0955 15.5152 22.1555 15.5491 22.214 15.5845C22.2925 15.6307 22.3695 15.6784 22.4464 15.7276C22.5249 15.7769 22.6034 15.8277 22.6819 15.8785C22.742 15.9185 22.8005 15.9585 22.859 15.9986C22.9544 16.0647 23.0498 16.1325 23.1437 16.2017C23.1589 16.213 23.1742 16.2241 23.1893 16.2351L23.1894 16.2351L23.1894 16.2351C23.2156 16.2542 23.2415 16.2731 23.2669 16.2925C23.3792 16.3772 23.4916 16.4649 23.6009 16.5542C23.6116 16.5634 23.6228 16.5723 23.634 16.5812C23.6451 16.59 23.6563 16.5988 23.667 16.6081C23.7579 16.6835 23.8471 16.762 23.9349 16.8405L23.9349 16.8405L23.9349 16.8405L23.9349 16.8405L23.9349 16.8405L23.935 16.8406L23.935 16.8406C24.0088 16.9067 24.0827 16.9729 24.155 17.0406C24.2289 17.1083 24.3012 17.1776 24.372 17.2469C24.4351 17.3084 24.4967 17.3715 24.5583 17.4346L24.6143 17.4928L24.6145 17.493C24.67 17.5506 24.7258 17.6084 24.7799 17.6671C24.8125 17.7025 24.844 17.7384 24.8754 17.7743L24.8754 17.7743C24.8959 17.7977 24.9163 17.821 24.9369 17.8441C25.0123 17.9287 25.0878 18.0149 25.1601 18.1011C25.1898 18.136 25.2181 18.1722 25.2465 18.2084L25.2465 18.2084L25.2465 18.2084L25.2465 18.2084L25.2466 18.2084L25.2466 18.2085C25.2608 18.2266 25.275 18.2448 25.2894 18.2627C25.5372 18.5721 25.7681 18.8938 25.982 19.2278C26.0359 19.311 26.0898 19.3941 26.1421 19.4787C26.1852 19.5495 26.2252 19.6219 26.2653 19.6942C26.3222 19.7927 26.3792 19.8912 26.4315 19.9913C26.4527 20.0301 26.4728 20.0699 26.4929 20.1096C26.5062 20.1361 26.5195 20.1624 26.5331 20.1883C26.5482 20.2186 26.5634 20.2487 26.5787 20.2788C26.6192 20.359 26.6597 20.4391 26.6978 20.5208L26.6978 20.5208C26.7255 20.5809 26.7532 20.6409 26.7794 20.7024C26.8332 20.824 26.8856 20.9456 26.9364 21.0687C26.9594 21.1242 26.981 21.1796 27.001 21.235C27.0518 21.3658 27.0995 21.4982 27.1457 21.6306L27.1597 21.6719L27.1719 21.7068C27.1807 21.7322 27.1896 21.7575 27.198 21.7829C27.2407 21.9109 27.2794 22.0415 27.3178 22.171L27.3273 22.2031C27.3412 22.2509 27.355 22.2986 27.3673 22.3463C27.4074 22.491 27.4428 22.6387 27.4766 22.785L27.4928 22.8534L27.5089 22.922C27.5413 23.0713 27.569 23.2206 27.5951 23.3714C27.599 23.3945 27.6032 23.4176 27.6075 23.4407L27.6075 23.4407L27.6075 23.4408L27.6075 23.4409L27.6075 23.4409C27.6117 23.4639 27.6159 23.4869 27.6198 23.5099C27.6444 23.6608 27.6629 23.8116 27.6813 23.964C27.6834 23.9799 27.6856 23.9957 27.6878 24.0114C27.6923 24.0429 27.6967 24.0743 27.6998 24.1072C27.7167 24.2611 27.7275 24.4165 27.7383 24.572C27.7398 24.5951 27.7418 24.6178 27.7437 24.6405C27.7456 24.6632 27.7475 24.6859 27.7491 24.709C27.7598 24.9091 27.766 25.1107 27.766 25.3124V28.6556V31.3215C27.766 37.5569 22.6927 42.6286 16.4589 42.6286C10.225 42.6286 5.15177 37.5553 5.15177 31.3215V25.3124C5.15177 23.5623 5.53965 21.8861 6.30619 20.3284C6.58786 19.7558 6.35236 19.0647 5.77977 18.783C5.20718 18.5013 4.51607 18.7368 4.2344 19.3094C3.31086 21.1873 2.84294 23.2067 2.84294 25.3124V31.3199C2.84294 38.8283 8.95057 44.9374 16.4589 44.9374L16.4604 44.9343ZM31.3862 56.3507C30.7582 56.4646 30.3426 57.0649 30.455 57.6914C30.5581 58.264 30.6105 58.852 30.6105 59.4384V69.6912H2.30883V59.4384C2.30883 54.0558 6.68791 49.6752 12.0721 49.6752H20.8487C24.0596 49.6752 27.0656 51.2559 28.8912 53.9018C29.2529 54.4267 29.9717 54.5591 30.4966 54.1958C31.0214 53.8341 31.1538 53.1153 30.7921 52.5904C28.5356 49.3181 24.8184 47.3663 20.8487 47.3663H12.0721C5.41652 47.3663 0 52.7813 0 59.4384V70.8456C0 71.4828 0.517178 72 1.15442 72H31.7664C32.4037 72 32.9208 71.4828 32.9208 70.8456V59.4384C32.9208 58.715 32.8562 57.9885 32.7284 57.2804C32.6145 56.6524 32.0142 56.2368 31.3878 56.3492L31.3862 56.3507ZM78.7681 38.9483C78.7542 38.6266 78.6064 38.3265 78.3602 38.1171C78.1139 37.9094 77.7922 37.8124 77.4736 37.8524L60.0696 39.9965C59.4724 40.0704 59.0306 40.5907 59.0568 41.1925C59.0676 41.4311 59.0737 41.6697 59.0784 41.9082C59.0907 42.5455 59.6186 43.0565 60.2543 43.0411C60.7884 43.0303 61.2302 42.6594 61.3533 42.1653L76.4946 40.2998C76.5701 46.8338 74.9785 53.2569 71.857 59.009L59.7572 53.8788C60.065 52.8521 60.3297 51.8085 60.5529 50.7603C62.8646 51.3255 64.7815 51.7934 65.9671 52.0827C66.5766 52.2315 66.9929 52.3331 67.17 52.3765L67.1702 52.3765C67.204 52.3842 67.2378 52.3919 67.2701 52.3965C67.3932 52.4196 67.5179 52.4319 67.641 52.4319C68.2383 52.4319 68.8185 52.1656 69.2003 51.6915C69.5358 51.2759 69.6897 50.7557 69.6343 50.2262C69.5789 49.6936 69.3188 49.2165 68.9032 48.8794C68.7924 48.7901 68.6708 48.7131 68.5338 48.6454C68.4953 48.6239 68.4568 48.6054 68.4153 48.5885C67.1546 48.062 53.2309 42.2423 44.7174 38.682C43.7508 35.5005 40.5738 33.3902 37.2137 33.8027C33.4088 34.2722 30.6951 37.7508 31.1631 41.5558C31.5956 45.0744 34.6017 47.6603 38.0603 47.6603C38.342 47.6603 38.6283 47.6434 38.9146 47.608C40.1244 47.4587 41.2542 47.0031 42.2177 46.2827L58.3072 50.2139C58.0271 51.5499 57.6715 52.8783 57.2436 54.1728C57.0543 54.7438 57.336 55.3626 57.8885 55.5981L71.9062 61.541C72.0524 61.6026 72.2048 61.6334 72.3557 61.6334C72.7574 61.6334 73.1437 61.4225 73.3562 61.0562C77.235 54.3375 79.1051 46.6937 78.7634 38.9514L78.7681 38.9483ZM41.1665 44.1663C40.4584 44.802 39.5841 45.2006 38.636 45.3176C38.4436 45.3407 38.2542 45.353 38.0649 45.353C35.7546 45.353 33.7459 43.626 33.458 41.2756C33.1456 38.7328 34.9588 36.4101 37.5 36.0961C37.6878 36.0731 37.8756 36.0623 38.0603 36.0623C40.2275 36.0623 42.17 37.5984 42.6164 39.7657C42.6395 39.878 42.6595 39.9996 42.678 40.1397C42.8642 41.6466 42.2993 43.1519 41.1665 44.1678V44.1663ZM44.0064 44.3193L44.0077 44.3167L44.0114 44.31C44.0132 44.3067 44.0151 44.3034 44.0171 44.3002C44.0408 44.2607 44.0637 44.2204 44.0863 44.1804L44.0864 44.1803L44.111 44.137L44.1281 44.1071C44.1593 44.0528 44.1901 43.999 44.2187 43.9431C44.248 43.8877 44.2757 43.8307 44.3034 43.7738L44.3226 43.7345C44.3485 43.6818 44.3741 43.6295 44.3988 43.5752C44.4249 43.5169 44.4495 43.4585 44.474 43.4002L44.4742 43.3997L44.4867 43.3695L44.505 43.326L44.5054 43.325C44.5232 43.2828 44.5409 43.2408 44.5574 43.1981C44.5646 43.1791 44.5716 43.1602 44.5785 43.1412L44.5925 43.1017L44.6008 43.0781C44.6078 43.0581 44.6148 43.038 44.622 43.018C44.6466 42.9503 44.6697 42.881 44.6928 42.8118C44.7061 42.7708 44.7181 42.7298 44.73 42.6888L44.7301 42.6887L44.7301 42.6886C44.7361 42.6681 44.7421 42.6476 44.7482 42.6271C44.7682 42.5578 44.7882 42.4885 44.8052 42.4193C44.8206 42.3562 44.8359 42.293 44.8498 42.2299L44.8568 42.1978L44.8568 42.1978C44.8698 42.1381 44.8827 42.0791 44.8944 42.0191C44.9068 41.9544 44.9175 41.8913 44.9283 41.8267C44.9406 41.7559 44.9514 41.6851 44.9606 41.6143C44.9669 41.5706 44.9717 41.5263 44.9765 41.4817L44.9766 41.4812L44.9767 41.4804C44.979 41.4594 44.9813 41.4383 44.9837 41.4172L44.9866 41.3938L44.9887 41.3772C44.9921 41.3505 44.9955 41.3238 44.9976 41.2972C51.0513 43.8292 59.2107 47.2401 63.8946 49.198C63.145 49.0146 62.3115 48.8111 61.4139 48.592L61.4003 48.5887L61.3935 48.5871L59.357 48.0898L43.9971 44.3371L43.9955 44.3387C43.9971 44.3362 43.9986 44.3336 44.0001 44.331C44.0022 44.3272 44.0043 44.3232 44.0064 44.3193ZM56.3339 59.2522L69.1649 64.6933H69.1664C69.5004 64.8365 69.7482 65.1274 69.836 65.4799C69.9237 65.8339 69.839 66.2064 69.6097 66.4881C68.0735 68.3674 66.345 70.1299 64.4764 71.7245C64.2671 71.9015 64.0008 72 63.7268 72H47.7035C47.2264 72 46.7985 71.706 46.6261 71.2596C46.4537 70.8133 46.5753 70.3084 46.9293 69.9882C50.1632 67.0653 52.8337 63.6297 54.8624 59.7771C55.141 59.246 55.7813 59.0182 56.3339 59.2522ZM50.5449 69.6912H63.2958C64.5441 68.6029 65.7232 67.4347 66.8145 66.2048L56.397 61.7873C54.7808 64.6656 52.8214 67.3115 50.5449 69.6912ZM39.3994 10.0602C43.309 12.1197 46.7846 14.8334 49.7322 18.1258C49.96 18.3797 50.2755 18.5106 50.5926 18.5106C50.8358 18.5106 51.079 18.4336 51.2868 18.2781L62.4138 9.88631C62.7048 9.66774 62.8741 9.32449 62.8725 8.96124C62.8725 8.59798 62.7001 8.25627 62.4077 8.03924C56.8049 3.86334 50.1986 1.18509 43.306 0.296963C42.7934 0.230776 42.2978 0.513993 42.0961 0.991151L38.8745 8.58874C38.6406 9.14132 38.8684 9.78164 39.3994 10.0602ZM43.8755 2.70738C49.5552 3.57396 55.0056 5.72887 59.7695 8.99048L50.7342 15.8046C48.0052 12.914 44.876 10.4712 41.4096 8.52563L43.877 2.70892L43.8755 2.70738ZM58.3134 35.1403C57.4145 30.8028 55.7629 26.7146 53.4063 22.9881C53.0846 22.4802 53.2078 21.8106 53.6865 21.4489L65.8417 12.2813C66.3081 11.9304 66.9622 11.9812 67.3671 12.3999C72.762 17.9764 76.4315 24.9368 77.9784 32.5313C78.0431 32.8469 77.9723 33.1747 77.7845 33.4364C77.5967 33.6965 77.3089 33.8674 76.9887 33.9074L59.5848 36.0515C59.537 36.0577 59.4893 36.0607 59.4431 36.0607C58.9029 36.0607 58.4257 35.6821 58.3134 35.1403ZM75.4464 31.7709C73.9349 25.4155 70.8303 19.5695 66.4066 14.7472L55.9137 22.6603C57.9439 26.0712 59.4308 29.753 60.3436 33.6319L75.4464 31.7709Z" fill="#EC5D25"/>
</svg>
