<svg width="30" height="30" viewBox="0 0 30 30" fill="none" xmlns="http://www.w3.org/2000/svg">
<path fill-rule="evenodd" clip-rule="evenodd" d="M12.1249 6.72513L12.3458 5.19238H12.3452L11.3052 4.09144C11.0205 3.79028 10.9255 3.35729 11.058 2.96004C11.1863 2.57275 11.5115 2.29034 11.9052 2.22237L13.3512 1.9716L14.0303 0.607593C14.2178 0.233194 14.5887 0 14.9994 0C15.4101 0 15.781 0.233194 15.9685 0.607008L16.6476 1.97102L18.0942 2.22179C18.4879 2.29034 18.8125 2.57334 18.9409 2.96004C19.0733 3.3567 18.9784 3.7897 18.6936 4.09144L17.6536 5.19238L17.8745 6.72513C17.9354 7.14523 17.7614 7.5583 17.4187 7.80087C17.0894 8.03406 16.6628 8.06453 16.306 7.87762L14.9994 7.19737L13.6928 7.87762C13.5376 7.95906 13.3682 7.99891 13.1995 7.99891C12.9821 7.99891 12.7659 7.93211 12.5808 7.80087C12.2392 7.55888 12.064 7.1464 12.1249 6.72513ZM12.0763 3.2073C12.0429 3.21316 12.02 3.23601 12.0071 3.27526H12.0089C12.0019 3.29753 11.9884 3.35553 12.0341 3.40416L13.2399 4.68087C13.3448 4.79161 13.3934 4.94395 13.3712 5.09511L13.1151 6.86692C13.1057 6.93723 13.1438 6.97297 13.1602 6.98469C13.1948 7.00812 13.2194 6.99699 13.2329 6.98996L14.7703 6.18843C14.9145 6.11343 15.0873 6.11343 15.232 6.18843L16.7695 6.98996L16.7697 6.99007C16.7832 6.99654 16.8072 7.00799 16.8421 6.98469C16.8585 6.97297 16.8972 6.93781 16.8872 6.86692L16.6312 5.09511C16.6089 4.94453 16.6576 4.79161 16.7624 4.68087L17.9682 3.40416C18.0139 3.35553 18.0016 3.29753 17.9934 3.27526C17.98 3.23601 17.9571 3.21316 17.9249 3.2073L16.2287 2.91317C16.0716 2.88563 15.9375 2.78544 15.866 2.64306L15.0738 1.05289C15.0674 1.03941 15.0475 1.00016 15.0006 1.00016C14.9537 1.00016 14.9338 1.04 14.9273 1.05289L14.1352 2.64306C14.0637 2.78544 13.9289 2.88563 13.7725 2.91317L12.0763 3.2073ZM3.12527 10.7252L3.34616 9.19241L2.30616 8.09148C2.02141 7.79032 1.92649 7.35733 2.0589 6.96008C2.18722 6.57279 2.5124 6.29038 2.90614 6.22241L4.35217 5.97164L5.03125 4.60763C5.21874 4.23323 5.58904 4.00004 6.00035 4.00004C6.41166 4.00004 6.78255 4.23323 6.96887 4.60705L7.64794 5.97106L9.09457 6.22183C9.4883 6.29038 9.8129 6.57338 9.94121 6.96008C10.0736 7.35674 9.97871 7.78973 9.69396 8.09148L8.65396 9.19241L8.87485 10.7252C8.93578 11.1453 8.76177 11.5583 8.41901 11.8009C8.09031 12.0341 7.66376 12.0646 7.30635 11.8777L5.99977 11.1974L4.69318 11.8777C4.53791 11.9591 4.36858 11.9989 4.19984 11.9989C3.98246 11.9989 3.76626 11.9321 3.58111 11.8009C3.23952 11.5589 3.06433 11.1464 3.12527 10.7252ZM3.07664 7.20734C3.04324 7.21319 3.02039 7.23605 3.0075 7.2753H3.00926C3.00223 7.29757 2.98875 7.35557 3.03445 7.4042L4.24026 8.68091C4.34514 8.79165 4.39377 8.94399 4.37151 9.09515L4.11546 10.867C4.10609 10.9373 4.14417 10.973 4.16058 10.9847C4.19573 11.0082 4.21976 10.9976 4.23323 10.99L5.77067 10.1885C5.91481 10.1135 6.08765 10.1135 6.23237 10.1885L7.76981 10.99C7.78329 10.997 7.80731 11.0082 7.84247 10.9847C7.85887 10.973 7.89754 10.9379 7.88758 10.867L7.63154 9.09515C7.60927 8.94457 7.6579 8.79165 7.76278 8.68091L8.9686 7.4042C9.0143 7.35557 9.00199 7.29757 8.99379 7.2753C8.98031 7.23605 8.95746 7.21319 8.92524 7.20734L7.22901 6.91321C7.07199 6.88567 6.93781 6.78548 6.86633 6.6431L6.07418 5.05293C6.06773 5.03945 6.04781 5.0002 6.00094 5.0002C5.95406 5.0002 5.93414 5.04004 5.9277 5.05293L5.13554 6.6431C5.06406 6.78548 4.9293 6.88567 4.77286 6.91321L3.07664 7.20734ZM21.3455 9.19241L21.1246 10.7252C21.0636 11.1464 21.2388 11.5589 21.5804 11.8009C21.7656 11.9321 21.9818 11.9989 22.1991 11.9989C22.3679 11.9989 22.5372 11.9591 22.6925 11.8777L23.9991 11.1974L25.3057 11.8777C25.6625 12.0646 26.0896 12.0341 26.4183 11.8009C26.7611 11.5583 26.9351 11.1453 26.8741 10.7252L26.6533 9.19241L27.6933 8.09148C27.978 7.78973 28.0729 7.35674 27.9405 6.96008C27.8122 6.57338 27.4876 6.29038 27.0939 6.22183L25.6472 5.97106L24.9682 4.60705C24.7818 4.23323 24.411 4.00004 23.9996 4.00004C23.5883 4.00004 23.218 4.23323 23.0305 4.60763L22.3515 5.97164L20.9054 6.22241C20.5117 6.29038 20.1865 6.57279 20.0582 6.96008C19.9258 7.35733 20.0207 7.79032 20.3055 8.09148L21.3455 9.19241ZM21.0068 7.2753C21.0197 7.23605 21.0425 7.21319 21.0759 7.20734L22.7722 6.91321C22.9286 6.88567 23.0634 6.78548 23.1348 6.6431L23.927 5.05293C23.9334 5.04004 23.9534 5.0002 24.0002 5.0002C24.0471 5.0002 24.067 5.03945 24.0735 5.05293L24.8656 6.6431C24.9371 6.78548 25.0713 6.88567 25.2283 6.91321L26.9245 7.20734C26.9568 7.21319 26.9796 7.23605 26.9931 7.2753C27.0013 7.29757 27.0136 7.35557 26.9679 7.4042L25.7621 8.68091C25.6572 8.79165 25.6086 8.94457 25.6308 9.09515L25.8869 10.867C25.8968 10.9379 25.8582 10.973 25.8418 10.9847C25.8066 11.0082 25.7826 10.997 25.7691 10.99L24.2317 10.1885C24.087 10.1135 23.9141 10.1135 23.77 10.1885L22.2325 10.99C22.2196 10.9976 22.1944 11.0082 22.1599 10.9847C22.1435 10.973 22.1054 10.9373 22.1148 10.867L22.3708 9.09515C22.3931 8.94399 22.3444 8.79165 22.2396 8.68091L21.0337 7.4042C20.988 7.35557 21.0015 7.29757 21.0086 7.2753H21.0068ZM0 26.9995C0 18.7288 6.72864 12.0001 14.9994 12.0001H15.0006C23.2714 12.0001 30 18.7288 30 26.9995C30 27.5515 29.5512 27.9997 28.9998 27.9997H23.0001C22.4481 27.9997 21.9999 27.5509 21.9999 26.9995C21.9999 26.6374 21.963 26.2794 21.9079 25.9255C20.2211 26.9157 18.5442 27.8819 17.2376 28.5932C16.8298 29.4223 15.9843 29.9994 15 29.9994C13.6213 29.9994 12.4999 28.878 12.4999 27.4993C12.4999 26.1207 13.6213 24.9992 15 24.9992C15.2127 24.9992 15.416 25.0338 15.6135 25.0842C16.8861 24.5844 18.6151 23.9481 20.8451 23.1594C19.5561 21.1978 17.3677 19.9996 15 19.9996C11.14 19.9996 8.00008 23.1395 8.00008 26.9995C8.00008 27.5515 7.55127 27.9997 6.99992 27.9997H1.00016C0.448225 27.9997 0 27.5509 0 26.9995ZM1.00016 26.9995H6.99992C6.99992 24.9734 7.76278 23.1266 9.00902 21.7158L4.75997 17.4667C2.42979 19.9686 1.00016 23.3194 1.00016 26.9995ZM9.71564 21.0086C11.0093 19.866 12.671 19.1389 14.4996 19.0246L14.499 19.0241V13.012C11.0158 13.1356 7.85419 14.5354 5.46658 16.7595L9.71564 21.0086ZM13.4989 27.4993C13.4989 28.326 14.1721 28.9993 14.9988 28.9993C15.8256 28.9993 16.4988 28.326 16.4988 27.4993C16.4988 26.6726 15.8256 25.9994 14.9988 25.9994C14.1721 25.9994 13.4989 26.6726 13.4989 27.4993ZM15.4998 19.017C17.2933 19.1289 18.9707 19.8414 20.2879 21.0045L24.5322 16.7601C22.1452 14.5354 18.9825 13.1356 15.4998 13.0126V19.017ZM16.7478 25.7175C17.1685 26.1306 17.4339 26.6931 17.4802 27.3165C19.9029 25.9671 23.2268 23.9914 25.6261 22.5554C21.68 23.9094 18.7604 24.95 16.7478 25.7175ZM22.9983 26.9995V27.0007H28.9981C28.9981 23.32 27.5685 19.9691 25.2383 17.4679L20.9927 21.7134C21.2945 22.055 21.5687 22.4241 21.8118 22.8196C22.8747 22.447 24.036 22.0439 25.3062 21.6079C25.8019 21.4374 26.3169 21.6583 26.5367 22.1276C26.7575 22.5999 26.5917 23.1407 26.1423 23.4131C25.1527 24.0043 24.0067 24.6881 22.8313 25.3818C22.9409 25.9103 22.9983 26.4523 22.9983 26.9995Z" fill="white"/>
</svg>
