<svg width="60" height="59" viewBox="0 0 60 59" fill="none" xmlns="http://www.w3.org/2000/svg">
<path fill-rule="evenodd" clip-rule="evenodd" d="M54.9893 4.39372C54.9893 6.81369 53.0173 8.78304 50.5947 8.78304V8.78217C48.1712 8.78217 46.2001 6.81457 46.2001 4.39284C46.2001 1.97111 48.1712 0 50.5947 0C53.0182 0 54.9893 1.97375 54.9893 4.39372ZM53.2325 4.39284C53.2325 2.9391 52.0493 1.75678 50.5947 1.75678C49.14 1.75678 47.9569 2.94174 47.9569 4.39284C47.9569 5.84394 49.14 7.02538 50.5947 7.02538C52.0493 7.02538 53.2325 5.84658 53.2325 4.39284ZM32.6105 9.25386C32.6175 9.15021 32.614 9.09927 32.6105 9.07818H32.6122L30.9046 7.0245C30.7219 6.8172 30.3196 6.34902 30.5023 5.76137C30.6877 5.16582 31.2911 5.01474 31.5494 4.95062L34.1441 4.30676L34.1564 4.28568L35.5092 2.02645C35.6356 1.81564 35.9721 1.25522 36.6212 1.25522H36.6247C37.2749 1.25698 37.6078 1.81802 37.7337 2.0302L37.7341 2.03084L39.0842 4.28568C39.0886 4.2927 39.093 4.29973 39.0974 4.30764L41.6904 4.95062C41.9495 5.01474 42.5539 5.16495 42.7401 5.7605C42.9237 6.34814 42.5345 6.80051 42.3378 7.0245L40.6328 9.07994C40.6302 9.10278 40.6275 9.15548 40.6355 9.25825L40.8384 11.81C40.8673 12.0814 40.9253 12.6884 40.4317 13.0617C39.9292 13.4429 39.3381 13.204 39.086 13.1021C39.0843 13.1017 39.0822 13.1008 39.0804 13.1001L39.0772 13.0986L36.7213 12.1183C36.673 12.1042 36.5615 12.1051 36.5158 12.1201L34.1679 13.0986L34.1635 13.1003L34.1617 13.1011L34.1591 13.1021L34.1545 13.1039C34.0044 13.164 33.7397 13.2699 33.4458 13.2699C33.2394 13.2699 33.018 13.218 32.8116 13.0617C32.3162 12.6875 32.3742 12.0814 32.404 11.81L32.6105 9.25386ZM35.6286 5.24664C35.4468 5.55671 35.2351 5.84658 34.6492 5.99151H34.6474L32.7238 6.46848L33.9711 7.96877C34.3787 8.45892 34.3883 9.01494 34.3593 9.39089L34.2153 11.174L35.8438 10.495C36.3102 10.3009 36.9339 10.3018 37.3959 10.4968L39.0218 11.1731L38.8804 9.39353C38.8488 8.97805 38.8655 8.44398 39.2731 7.96263L40.5134 6.46848L38.5879 5.99063C38.0099 5.84834 37.8 5.56374 37.6191 5.25981L36.6194 3.59087L35.6286 5.24664ZM50.6289 13.9032C49.1427 16.1782 48.671 18.2091 48.6517 18.2943C48.5445 18.7669 48.8405 19.2359 49.3122 19.344C49.3781 19.3589 49.444 19.3659 49.509 19.3659C49.9086 19.3659 50.2705 19.0901 50.3645 18.6843L50.3646 18.6841C50.3713 18.6559 50.8073 16.8228 52.1345 14.8106C53.886 12.1552 56.2928 10.4467 59.289 9.73171C59.7607 9.61927 60.0523 9.14494 59.9399 8.67325C59.8274 8.20155 59.3531 7.90992 58.8814 8.02323C55.4618 8.83926 52.6079 10.8727 50.6289 13.9023V13.9032ZM24.1691 34.888H45.8145L45.8136 34.8906C46.9889 34.8906 47.9454 35.8472 47.9454 37.0225V55.7946C47.9454 57.5145 46.5462 58.9138 44.8254 58.9138H34.3339H34.3321H34.3304H25.9461H25.9443H25.9426H15.4511C13.7303 58.9138 12.331 57.5145 12.331 55.7946V41.4873L6.5916 44.6856H6.59073C6.19106 44.9078 5.75713 45.0132 5.32935 45.0132C4.41583 45.0132 3.52865 44.5327 3.05344 43.6816L1.27118 40.4833C0.575496 39.2308 1.02611 37.6453 2.27518 36.9487L7.3681 34.1106C3.91954 33.7891 1.41612 32.266 0.41475 29.7661C-0.566414 27.3154 0.236437 24.4878 2.36654 22.89C3.76757 21.8395 5.56476 21.4249 7.56311 21.6928C9.65719 21.973 11.8804 22.9823 14.1774 24.6951L15.2376 24.104C14.9504 20.8161 15.3975 18.1221 16.5728 16.0921C16.8152 15.6723 17.3528 15.5282 17.7727 15.7715C18.1925 16.014 18.3366 16.5515 18.0933 16.9714C17.2079 18.5016 16.8152 20.6229 16.9356 23.1571L17.2395 22.9875C17.8965 22.6212 18.644 22.4912 19.3792 22.6089C19.6489 21.3625 20.1847 19.9544 20.804 18.9381C21.0561 18.5235 21.5963 18.3918 22.0109 18.6448C22.4255 18.8969 22.5564 19.4371 22.3043 19.8517C21.7298 20.7951 21.2089 22.2409 21.0227 23.3582C21.3231 23.6138 21.5796 23.923 21.7764 24.277L22.5441 25.6526L23.6052 25.0614C26.3449 21.5531 26.987 18.1871 25.3145 16.0351C24.1498 14.5365 22.1119 14.0402 20.3578 14.829C19.9151 15.0275 19.3951 14.8308 19.1965 14.3881C18.9971 13.9454 19.1948 13.4253 19.6375 13.2268C22.133 12.1042 25.0378 12.8166 26.7015 14.9573C27.7248 16.2749 28.1473 17.9552 27.9234 19.8165C27.7881 20.9347 27.4244 22.0854 26.8394 23.2598L31.8138 20.4876C33.0628 19.7884 34.651 20.2382 35.3519 21.4899L37.1342 24.6855C37.8307 25.9372 37.3784 27.5235 36.1284 28.2227L24.1691 34.888ZM13.9394 32.4583L16.542 37.127H16.5429L20.1329 35.126C20.2365 35.0285 20.3639 34.9565 20.5053 34.9187L24.4686 32.7096L21.866 28.0418L13.9394 32.4583ZM33.0795 21.9141C32.9407 21.9141 32.7993 21.9484 32.6702 22.0213H32.6711L23.4005 27.1871L26.0032 31.8549L35.272 26.6891C35.6778 26.4616 35.8254 25.9459 35.5996 25.5401L33.8182 22.3463C33.6637 22.0705 33.3755 21.9141 33.0795 21.9141ZM18.8557 24.3227C18.5913 24.3227 18.3304 24.3894 18.095 24.5212H18.0959L12.9274 27.4023C12.5603 27.6061 12.295 27.9417 12.1791 28.3484C12.1518 28.4441 12.1343 28.5407 12.1255 28.6382L12.1245 28.6456C12.1237 28.6514 12.1228 28.6576 12.1228 28.6637C12.0991 28.9685 12.165 29.2724 12.3161 29.5438L13.0847 30.9229L21.0104 26.5064L20.2427 25.1317C20.038 24.7654 19.7016 24.5001 19.294 24.3842C19.1491 24.3429 19.0015 24.3227 18.8557 24.3227ZM3.42149 24.2937C1.92558 25.4163 1.36078 27.3971 2.0468 29.1117L2.04592 29.1126C3.04202 31.6002 6.22971 32.7913 10.5892 32.3143L11.5484 31.7802L10.7798 30.4012C10.5707 30.0278 10.4398 29.6255 10.3863 29.2127C9.3603 28.8692 8.39494 28.6461 6.75323 28.4661C6.27099 28.4134 5.92315 27.9794 5.97585 27.4972C6.02855 27.015 6.46248 26.6671 6.94472 26.7198C8.43711 26.8832 9.47888 27.0835 10.6384 27.4489C10.9282 26.7795 11.4254 26.227 12.071 25.8678L12.4795 25.6403C8.90353 23.1922 5.57618 22.6775 3.42149 24.2937ZM4.58887 42.8243C4.8111 43.2213 5.33726 43.3706 5.73781 43.1484H5.73869L12.7869 39.2202C12.7904 39.2185 12.7966 39.2149 12.7966 39.2149L15.0084 37.9826L12.4057 33.3139L11.3314 33.913C11.3068 33.9279 11.2822 33.942 11.2567 33.9543L3.13162 38.4815C2.72756 38.7064 2.58174 39.2211 2.80749 39.6269L4.58887 42.8243ZM14.0887 40.5053V55.7911C14.0887 56.5421 14.7 57.1535 15.4519 57.1535H25.0668V48.5848C25.0668 48.0999 25.4603 47.7064 25.9452 47.7064C26.4301 47.7064 26.8236 48.0999 26.8236 48.5848V57.1535H33.4546V36.6439H26.8236V44.4229C26.8236 44.9078 26.4301 45.3013 25.9452 45.3013C25.4603 45.3013 25.0668 44.9078 25.0668 44.4229V36.6439H21.0166L14.0887 40.5053ZM44.8271 57.1535C45.579 57.1535 46.1904 56.5421 46.1904 55.7911V37.019C46.1904 36.8161 46.0191 36.6439 45.8153 36.6439H35.2123V57.1535H44.8271ZM42.5946 15.2121L42.5943 15.2085L42.5934 15.2094C42.5416 14.7262 42.8903 14.2932 43.3725 14.2414C43.8556 14.1887 44.2887 14.5374 44.3405 15.0196C44.3915 15.4922 45.5474 26.6671 41.2512 31.3243C41.0782 31.5123 40.8428 31.6072 40.6056 31.6072C40.3921 31.6072 40.1787 31.5299 40.01 31.3744C39.6534 31.0459 39.6315 30.4899 39.96 30.1332C41.484 28.481 42.4274 25.4049 42.6865 21.2369C42.8851 18.049 42.6065 15.3282 42.5946 15.2121V15.2121ZM59.513 27.2187C59.6983 27.0106 60.1006 26.5433 59.9188 25.9556C59.7335 25.3583 59.1265 25.2072 58.8674 25.1431L56.2779 24.501L54.912 22.2198C54.7855 22.009 54.4491 21.4486 53.7999 21.4486H53.7964C53.1482 21.4503 52.8152 22.0081 52.6888 22.2216L51.3325 24.4799L51.3193 24.5019L48.7298 25.144C48.4707 25.2081 47.8629 25.3592 47.6784 25.9565C47.4966 26.5441 47.8998 27.0106 48.0842 27.2196L49.7883 29.2733C49.7909 29.2961 49.7936 29.348 49.7865 29.4472L49.5792 32.0025C49.552 32.273 49.4958 32.8844 49.9921 33.2577C50.1976 33.4123 50.4172 33.4632 50.6228 33.4632C50.9182 33.4632 51.1841 33.3562 51.3329 33.2963L51.3351 33.2955L51.3395 33.2937L51.3439 33.2919L53.6919 32.3134C53.7393 32.2985 53.857 32.2985 53.8983 32.3108L56.2524 33.2919C56.2524 33.2919 56.2544 33.2928 56.2567 33.2937C56.2583 33.2944 56.2601 33.2951 56.2612 33.2955C56.5124 33.3974 57.1018 33.6354 57.6042 33.2577C58.1005 32.8844 58.0443 32.273 58.0171 32.0033L57.8107 29.4525C57.8028 29.3497 57.8054 29.2979 57.808 29.2742L59.5121 27.2205L59.513 27.2187ZM56.4492 28.1595C56.0442 28.64 56.0284 29.1723 56.06 29.5878L56.2041 31.3665L54.5747 30.6875C54.3428 30.5909 54.0713 30.5426 53.799 30.5426C53.5267 30.5426 53.2553 30.5909 53.0234 30.6875L51.394 31.3665L51.5381 29.5834C51.5697 29.1732 51.553 28.64 51.1489 28.1595L49.906 26.661L51.8332 26.1831C52.4147 26.0382 52.6246 25.7483 52.8056 25.44L53.7999 23.7825L54.7565 25.3794L54.7916 25.4391C54.9726 25.7483 55.1834 26.0373 55.7658 26.1831L57.6912 26.661L56.4483 28.1595H56.4492Z" fill="#EC5D25"/>
</svg>
