<svg width="62" height="24" viewBox="0 0 62 24" fill="none" xmlns="http://www.w3.org/2000/svg">
<g clip-path="url(#clip0_1086_1559)">
<path d="M0.387086 12.9467L11.0652 23.6134C11.5858 24.1334 12.4267 24.1334 12.9473 23.6134C13.4678 23.0934 13.4678 22.2534 12.9473 21.7334L4.55156 13.3467L60.6652 13.3467C61.3994 13.3467 62 12.7467 62 12.0134C62 11.28 61.3994 10.68 60.6652 10.68L4.55156 10.68L12.9473 2.29335C13.4678 1.77335 13.4678 0.933351 12.9473 0.413351C12.6803 0.146684 12.3466 0.0266852 11.9996 0.0266852C11.6525 0.0266851 11.3188 0.160016 11.0519 0.41335L0.373742 11.08C-0.146819 11.6 -0.146819 12.44 0.373742 12.96L0.387086 12.9467Z" fill="#D8D8D8"/>
</g>
<defs>
<clipPath id="clip0_1086_1559">
<rect width="62" height="24" fill="white" transform="translate(62 24) rotate(-180)"/>
</clipPath>
</defs>
</svg>
