<svg width="52" height="52" viewBox="0 0 52 52" fill="none" xmlns="http://www.w3.org/2000/svg">
<path fill-rule="evenodd" clip-rule="evenodd" d="M24.159 12.0795C24.159 18.7326 18.7326 24.159 12.0795 24.159C5.42645 24.159 0 18.7326 0 12.0795C0 5.42645 5.42645 0 12.0795 0C18.7326 0 24.159 5.42645 24.159 12.0795ZM22.4816 12.0795C22.4816 6.35008 17.809 1.67742 12.0795 1.67742C6.35008 1.67742 1.67742 6.35008 1.67742 12.0795C1.67742 17.809 6.35008 22.4816 12.0795 22.4816C17.809 22.4816 22.4816 17.809 22.4816 12.0795ZM45.5912 6.69605L42.6106 6.86065V6.85855C42.1483 6.88371 41.752 6.52936 41.7269 6.06702C41.7017 5.60468 42.056 5.20839 42.5184 5.18323L47.8494 4.88968C48.1 4.87605 48.3443 4.97565 48.5141 5.16121C48.6839 5.34677 48.7605 5.59839 48.7248 5.8479L47.9564 11.136C47.8893 11.5941 47.4636 11.9128 47.0055 11.8457C46.5473 11.7786 46.2286 11.353 46.2957 10.8948L46.7277 7.9279C32.998 20.1919 17.9243 27.8986 3.68089 32.8565C3.24476 33.0095 2.76565 32.7778 2.61363 32.3406C2.46056 31.9035 2.69226 31.4254 3.12944 31.2734C17.1778 26.3827 32.0471 18.7881 45.5912 6.69605ZM15.7111 19.4035C14.0683 19.4035 12.7358 18.071 12.7358 16.4282C12.7358 14.7854 14.0683 13.4529 15.7111 13.4529C16.5058 13.4529 17.2544 13.7632 17.8152 14.3241C18.3761 14.885 18.6865 15.6335 18.6865 16.4282C18.6865 18.071 17.354 19.4035 15.7111 19.4035ZM15.7101 17.7261C16.4272 17.7261 17.008 17.1443 17.008 16.4282C17.008 16.0812 16.8727 15.7552 16.6285 15.5098C16.3831 15.2656 16.0571 15.1303 15.7101 15.1303C14.994 15.1303 14.4122 15.7122 14.4122 16.4282C14.4122 17.1443 14.993 17.7261 15.7101 17.7261ZM51.1613 50.3226H48.7343V18.3877C48.7343 17.9243 48.359 17.549 47.8956 17.549H41.2341C40.7707 17.549 40.3954 17.9243 40.3954 18.3877V50.3226H36.3612V24.678C36.3612 24.2146 35.9859 23.8393 35.5225 23.8393H28.861C28.3977 23.8393 28.0223 24.2146 28.0223 24.678V50.3226H23.9881V31.677C23.9881 31.2136 23.6128 30.8383 23.1494 30.8383H16.488C16.0246 30.8383 15.6493 31.2136 15.6493 31.677V50.3226H11.6151V38.3731C11.6151 37.9097 11.2398 37.5344 10.7764 37.5344H4.10548C3.6421 37.5344 3.26677 37.9097 3.26677 38.3731V50.3226H0.83871C0.376371 50.3226 0 50.6979 0 51.1613C0 51.6247 0.376371 52 0.83871 52H51.1613C51.6247 52 52 51.6236 52 51.1613C52 50.6989 51.6247 50.3226 51.1613 50.3226ZM9.93661 50.3226H4.94315V39.2118H9.93661V50.3226ZM22.3097 50.3226H17.3256V32.5157H22.3097V50.3226ZM34.6827 50.3226H29.6987V25.5167H34.6827V50.3226ZM47.0569 50.3226H42.0728V19.2264H47.0569V50.3226ZM7.15315 18.9905C7.52952 19.261 8.05371 19.175 8.32315 18.7986L17.2764 6.33645C17.5469 5.96008 17.4609 5.43589 17.0845 5.16645C16.7081 4.89702 16.184 4.98194 15.9135 5.35831L6.96024 17.8205C6.68976 18.1969 6.77573 18.721 7.1521 18.9915L7.15315 18.9905ZM11.4243 7.73081C11.4243 9.37363 10.097 10.7061 8.44895 10.7061C6.80613 10.7061 5.47363 9.37363 5.47363 7.73081C5.47363 6.08798 6.80613 4.75548 8.44895 4.75548C9.24363 4.75548 9.99218 5.06581 10.5531 5.62669C11.114 6.18758 11.4243 6.94137 11.4243 7.73081ZM9.36734 6.81242C9.12202 6.56815 8.79597 6.4329 8.44895 6.4329C7.73185 6.4329 7.15105 7.01161 7.15105 7.73081C7.15105 8.45 7.72976 9.02871 8.44895 9.02871C9.16815 9.02871 9.74685 8.44685 9.74685 7.73081C9.74685 7.38589 9.61161 7.05774 9.36734 6.81242Z" fill="#EC5D25"/>
</svg>
