<svg width="63" height="63" viewBox="0 0 63 63" fill="none" xmlns="http://www.w3.org/2000/svg">
<path fill-rule="evenodd" clip-rule="evenodd" d="M62.1242 35.4606C59.5364 24.4667 53.785 18.0968 49.6307 14.7685C54.8395 15.161 56.5167 17.3278 56.5659 17.393C56.8945 17.863 57.5393 17.9812 58.0143 17.66C58.4892 17.3389 58.6185 16.6954 58.3047 16.2155C58.2296 16.1023 56.7702 14.0192 52.5298 13.0656C53.6139 12.1748 54.2562 10.8545 54.287 9.45061C54.1467 7.12387 52.5261 5.15026 50.2718 4.55966C50.3641 3.80171 50.4109 3.03762 50.4121 2.27352C50.4121 1.56972 50.0577 0.91267 49.4695 0.525085C48.8825 0.1375 48.1393 0.0685964 47.4921 0.344212C46.9617 0.584145 46.4695 0.900365 46.0302 1.2818C45.5146 1.81088 44.8058 2.10741 44.0663 2.10126C43.328 2.10618 42.6204 1.81088 42.1061 1.2818C40.2553 -0.427266 37.4018 -0.427266 35.5511 1.2818C35.0355 1.81211 34.3255 2.10864 33.5859 2.10126C32.8488 2.10741 32.14 1.81088 31.6269 1.2818C31.1889 0.900365 30.6979 0.585376 30.17 0.345443C29.5227 0.0722876 28.7807 0.141192 28.195 0.528776C27.6093 0.916361 27.2561 1.57218 27.2536 2.27475C27.2536 4.88695 27.7705 9.54658 31.0412 12.6756C29.3221 13.7202 27.7163 14.942 26.2508 16.3201V8.39982C26.2508 6.00541 22.8644 4.20037 18.3754 4.20037C13.8865 4.20037 10.5001 6.00664 10.5001 8.39982V18.9778C6.8171 19.3457 4.19978 20.9994 4.19978 23.0985V49.8049C1.66244 50.4866 0 51.8684 0 53.5479V58.7981C0 61.1925 3.3864 62.9976 7.87535 62.9976C11.8893 62.9976 15.0161 61.5518 15.6326 59.5327C17.4451 60.4924 19.4767 60.9625 21.5268 60.8972C26.0157 60.8972 29.4021 59.091 29.4021 56.6978V43.0487C29.4021 40.6542 26.0157 38.8492 21.5268 38.8492C21.0013 38.8492 20.4747 38.875 19.9517 38.928V23.0997C19.9517 20.8001 16.8262 19.0492 12.6018 18.9138V11.3073C14.3885 12.2154 16.3746 12.6596 18.3766 12.5993C20.3799 12.6596 22.366 12.2141 24.1515 11.3073V18.4684C23.4599 19.2423 22.7647 20.0852 22.0793 21.0203C21.7655 21.4879 21.8762 22.1203 22.3303 22.4525C22.7844 22.786 23.4206 22.7011 23.7713 22.2606C24.4456 21.3476 25.1679 20.4715 25.937 19.6361C25.9456 19.6262 25.953 19.6176 25.9616 19.609C27.9661 17.3819 30.3201 15.4957 32.9313 14.0241C33.4456 14.2727 33.9907 14.4535 34.5519 14.563L31.8447 17.0891C31.4202 17.4853 31.398 18.1497 31.7943 18.5742C32.1905 18.9987 32.855 19.0209 33.2795 18.6247L37.4793 14.707H37.814V17.8569C37.814 18.4364 38.284 18.9064 38.8636 18.9064C39.4432 18.9064 39.9133 18.4364 39.9133 17.8569V14.7021H40.248L44.4477 18.6198C44.7221 18.8757 45.1122 18.9667 45.4715 18.8572C45.8309 18.7477 46.104 18.4549 46.1889 18.0894C46.2738 17.724 46.1569 17.3413 45.8825 17.0842L43.1582 14.547C43.7156 14.4363 44.257 14.2554 44.7677 14.0069C47.5425 15.508 56.6656 21.4411 60.0828 35.9417C61.568 42.2538 61.0327 47.0832 58.4917 50.291C55.2407 54.3907 49.5999 54.6011 48.5023 54.6011H33.6019C33.0223 54.6011 32.5523 55.0712 32.5523 55.6507C32.5523 56.2302 33.0223 56.7003 33.6019 56.7003H48.5023C50.2878 56.7003 56.3826 56.3311 60.1369 51.594C63.0963 47.8572 63.7657 42.4285 62.1254 35.4606H62.1242ZM13.649 58.7994C13.649 59.6397 11.3467 60.8997 7.87412 60.8997C4.40158 60.8997 2.09927 59.6397 2.09927 58.7994V56.4566C3.88599 57.3647 5.87206 57.8089 7.87412 57.7486C9.87741 57.8089 11.8635 57.3635 13.649 56.4566V58.7994ZM7.87412 55.6495C4.40158 55.6495 2.09927 54.3895 2.09927 53.5491C2.09927 52.7087 4.40158 51.4488 7.87412 51.4488C11.3467 51.4488 13.649 52.7087 13.649 53.5491C13.649 54.3895 11.3467 55.6495 7.87412 55.6495ZM13.649 43.0499V50.6416C11.8622 49.7336 9.87618 49.2894 7.87412 49.3497C7.34869 49.3497 6.82202 49.3755 6.29905 49.4284V26.0085C8.08577 26.9165 10.0718 27.3607 12.0739 27.3004C14.0772 27.3607 16.0633 26.9153 17.8487 26.0085V39.3069C15.3114 39.9886 13.649 41.3704 13.649 43.0499ZM27.3004 56.7003C27.3004 57.5406 24.9981 58.8006 21.5256 58.8006C18.053 58.8006 15.7507 57.5406 15.7507 56.7003V45.9586C17.5374 46.8667 19.5235 47.3109 21.5256 47.2506C23.5288 47.3109 25.5149 46.8654 27.3004 45.9586V56.7003ZM21.5243 40.9508C24.9969 40.9508 27.2992 42.2107 27.2992 43.0511C27.2992 43.8915 24.9969 45.1515 21.5243 45.1515C18.0518 45.1515 15.7495 43.8915 15.7495 43.0511C15.7495 42.2107 18.0518 40.9508 21.5243 40.9508ZM17.85 23.101C17.85 23.9414 15.5477 25.2013 12.0751 25.2013C8.60259 25.2013 6.30028 23.9414 6.30028 23.101C6.30028 22.2606 8.60259 21.0006 12.0751 21.0006C15.5477 21.0006 17.85 22.2606 17.85 23.101ZM18.3742 10.5014C14.9016 10.5014 12.5993 9.24143 12.5993 8.40105C12.5993 7.56067 14.9016 6.30071 18.3742 6.30071C21.8467 6.30071 24.149 7.56067 24.149 8.40105C24.149 9.24143 21.8467 10.5014 18.3742 10.5014ZM44.561 11.6863C43.7993 12.2584 42.8776 12.5734 41.9252 12.5882C42.8345 11.0268 43.5532 9.36325 44.0687 7.6308C44.1696 7.26906 44.0687 6.88147 43.8066 6.61324C43.5433 6.34501 43.1582 6.23796 42.7939 6.33147C42.4309 6.42498 42.1442 6.70552 42.0445 7.06727C41.4625 9.04087 40.5691 10.9087 39.3964 12.5993H38.3173C37.147 10.9074 36.2525 9.03964 35.668 7.06727C35.5117 6.50865 34.9333 6.18136 34.3747 6.33762C33.816 6.49389 33.4887 7.07219 33.645 7.6308C34.1606 9.36448 34.8804 11.0292 35.7898 12.5919C34.8189 12.587 33.8751 12.2695 33.0999 11.6863C29.7171 9.04457 29.3541 4.22375 29.3541 2.28091C29.7024 2.44701 30.0248 2.66234 30.3127 2.9195C31.1999 3.75004 32.3714 4.20898 33.5871 4.20037C34.8029 4.20898 35.9756 3.75127 36.8628 2.9195C37.3821 2.39533 38.0884 2.10126 38.8267 2.10126C39.565 2.10126 40.2713 2.39656 40.7906 2.9195C41.6778 3.75127 42.8518 4.21022 44.0675 4.20037C45.2833 4.21022 46.4572 3.75127 47.3444 2.9195C47.6348 2.66234 47.9597 2.44455 48.3079 2.27229C48.3079 4.22252 47.9461 9.0421 44.5622 11.6851L44.561 11.6863ZM46.8251 12.4676C48.3497 10.8422 49.408 8.83662 49.8928 6.66123C51.1566 7.03405 52.0659 8.13897 52.1877 9.45061C52.1877 11.172 50.3235 12.5833 47.988 12.6005C47.5966 12.598 47.2078 12.5537 46.8263 12.4676H46.8251ZM35.7 35.7005C35.7 35.121 35.23 34.6509 34.6504 34.6509C34.0708 34.6509 33.6007 35.121 33.6007 35.7005C33.6007 38.0198 35.481 39.8999 37.8005 39.8999V40.9495C37.8005 41.529 38.2706 41.999 38.8502 41.999C39.4297 41.999 39.8998 41.529 39.8998 40.9495V39.8999C42.2193 39.8999 44.0996 38.0198 44.0996 35.7005C44.0996 33.3811 42.2193 31.501 39.8998 31.501V27.3016C41.0602 27.3016 42.0003 28.2416 42.0003 29.4019C42.0003 29.9815 42.4704 30.4515 43.0499 30.4515C43.6295 30.4515 44.0996 29.9815 44.0996 29.4019C44.0996 27.0826 42.2193 25.2025 39.8998 25.2025V24.1529C39.8998 23.5734 39.4297 23.1034 38.8502 23.1034C38.2706 23.1034 37.8005 23.5734 37.8005 24.1529V25.2025C35.481 25.2025 33.6007 27.0826 33.6007 29.4019C33.6007 31.7213 35.481 33.6014 37.8005 33.6014V37.8008C36.6401 37.8008 35.7 36.8608 35.7 35.7005ZM39.901 33.6002C41.0614 33.6002 42.0015 34.5402 42.0015 35.7005C42.0015 36.8608 41.0614 37.8008 39.901 37.8008V33.6014V33.6002ZM35.7 29.4001C35.7004 28.2401 36.6404 27.3004 37.8005 27.3004V31.4998C36.6404 31.4998 35.7004 30.5601 35.7 29.4001ZM35.7 29.4001C35.7 29.3999 35.7 29.3997 35.7 29.3995V29.4007C35.7 29.4005 35.7 29.4003 35.7 29.4001ZM58.7711 43.0991C58.7613 45.2154 58.0869 47.2739 56.8429 48.9854V48.9842C54.1923 52.3297 49.4277 52.4983 48.4999 52.4983C47.9203 52.4983 47.4503 52.0283 47.4503 51.4487C47.4503 50.8692 47.9203 50.3992 48.4999 50.3992C49.2592 50.3992 53.1464 50.2688 55.1952 47.6812C56.1649 46.3117 56.6804 44.6752 56.6731 42.9982C56.7063 42.4211 57.1948 41.9769 57.7719 41.9991C58.05 42.0126 58.3121 42.1356 58.4992 42.3423C58.6874 42.5491 58.7846 42.821 58.7711 43.0991Z" fill="#EC5D25"/>
</svg>
