<?xml version="1.0" encoding="UTF-8"?>
<svg id="Layer_1" xmlns="http://www.w3.org/2000/svg" version="1.1" viewBox="0 0 100 100">
  <!-- Generator: Adobe Illustrator 29.5.0, SVG Export Plug-In . SVG Version: 2.1.0 Build 137)  -->
  <defs>
    <style>
      .st0 {
        fill: #ec5d25;
      }
    </style>
  </defs>
  <path class="st0" d="M16.3,27.7c-.6,0-1.1.5-1.1,1.1s.4,1.1,1.1,1.1h29.6c.6,0,1.1-.5,1.1-1.1s-.5-1.1-1.1-1.1h-29.6Z"/>
  <path class="st0" d="M16.3,38.9h15.9c.6,0,1-.5,1-1.1s-.5-1.1-1.1-1.1h-15.8c-.6,0-1.1.5-1.1,1.1s.5,1.1,1.1,1.1Z"/>
  <path class="st0" d="M45.9,38.9c.6,0,1.1-.5,1.1-1.1s-.5-1.1-1.1-1.1h-3.8c-.6,0-1.1.5-1.1,1.1s.5,1.1,1.1,1.1h3.8Z"/>
  <path class="st0" d="M20.1,18.6h-3.8c-.6,0-1.1.5-1.1,1.1s.4,1.1,1.1,1.1h3.8c.6,0,1.1-.5,1.1-1.1s-.5-1.1-1.1-1.1Z"/>
  <path class="st0" d="M83.1,80.8h8.5c.6,0,1.1-.5,1.1-1.1s-.5-1.1-1.1-1.1h-22.2l.7-.7c3.3-3,6-6.7,7.7-10.7v-.2h.3c9.1,0,16.4-7.4,16.4-16.4v-9.4c0-3.8-3.1-6.9-6.9-6.9h-7v-2.6c0-.6-.5-1.1-1.1-1.1h-21.4v-15.7c0-2.9-2.4-5.3-5.3-5.3H10.7c-2.9,0-5.3,2.4-5.3,5.3v27.8c0,2.9,2.4,5.3,5.3,5.3h8.5v5.7c0,9.5,3.9,18.3,10.6,24.2l.7.7H8.1c-.6,0-1.1.5-1.1,1.1s.5,1.1,1.1,1.1h8.5l1.7,4.1c1,2.4,2.3,5.6,7.5,5.6h48.3c5.2,0,6.5-3.1,7.4-5.5l1.7-4.2ZM78.9,64.2c1.1-3.4,1.7-7,1.7-10.6v-17.1h7.1c2.6,0,4.7,2.1,4.7,4.7v9.4c0,7.3-5.7,13.5-13,14.1h-.6s.2-.5.2-.5ZM58.2,32.8h20.2v7.8h-20.2v-7.8ZM10.7,45.8c-1.7-.1-3.1-1.5-3.1-3.2V14.9c0-1.7,1.4-3.1,3.1-3.1h42.2c1.7,0,3.1,1.4,3.1,3.1v27.8c0,1.7-1.4,3.1-3.1,3.1h-7c-.6,0-1.1.5-1.1,1.1v7.6l-10.9-8.5c-.2-.1-.4-.2-.7-.2H10.7ZM21.3,53.6v-5.7h11.3l12.4,9.7c.2.1.4.2.7.2s.2,0,.3,0h.2c.3-.3.5-.7.5-1v-8.8h5.9c2.7,0,5-2.1,5.3-4.9v-.3h20.2v10.9c0,15-9.8,22.8-12.8,24.8h0c0,0-31.2,0-31.2,0h0c-3-2.1-12.8-9.9-12.8-24.9ZM79.4,84c-.9,2.2-1.6,4.1-5.4,4.1H25.8c-3.7,0-4.4-1.7-5.4-3.9v-.2c0,0-1.4-3.3-1.4-3.3h61.7l-1.3,3.3Z"/>
  <path class="st0" d="M30,20.8h15.9c.6,0,1.1-.5,1.1-1.1s-.5-1.1-1.1-1.1h-15.9c-.6,0-1.1.5-1.1,1.1s.5,1.1,1.1,1.1Z"/>
</svg>