<svg width="52" height="52" viewBox="0 0 52 52" fill="none" xmlns="http://www.w3.org/2000/svg">
<g clip-path="url(#clip0_1117_1032)">
<path d="M50.2763 22.3108C51.42 19.7928 52 17.1143 52 14.3504V9.1742C52 7.48908 50.6287 6.11884 48.9436 6.11884C48.386 6.11884 47.8629 6.26917 47.4119 6.53123V5.35094C47.4119 3.66582 46.0406 2.29457 44.3555 2.29457C43.7897 2.29457 43.2595 2.44896 42.8045 2.71813C42.6359 1.19147 41.3377 0 39.7664 0C38.4347 0 37.2991 0.856272 36.8806 2.04774C36.3809 1.71051 35.7918 1.52971 35.1742 1.52971C35.161 1.52971 35.1478 1.52971 35.1346 1.52971C33.7359 1.54901 32.5729 2.50889 32.2275 3.82326H32.003C28.6369 3.82326 25.3763 3.11732 22.3108 1.72372C19.7928 0.57999 17.1153 0 14.3504 0H9.1742C7.48908 0 6.11884 1.37125 6.11884 3.05637C6.11884 3.61402 6.26917 4.13713 6.53123 4.58812H5.35094C3.66582 4.58812 2.29457 5.95937 2.29457 7.64449C2.29457 8.21026 2.44896 8.74048 2.71813 9.19553C1.19147 9.36414 0 10.6623 0 12.2336C0 13.5653 0.856272 14.7009 2.04774 15.1194C1.7034 15.6303 1.5226 16.2336 1.52971 16.8654C1.54901 18.2499 2.52006 19.418 3.82123 19.7704C3.81209 21.3113 3.74911 22.648 3.38548 24.5008C3.30422 24.9132 3.57339 25.3144 3.9868 25.3946C4.03657 25.4048 4.08532 25.4088 4.13408 25.4088C4.4906 25.4088 4.80955 25.1569 4.88065 24.7933C5.26155 22.8532 5.33266 21.4606 5.34485 19.8791H13.9157C14.2986 19.8791 14.4967 20.132 14.5637 20.2407C14.6308 20.3494 14.7679 20.6389 14.5962 20.9812L13.5135 23.1417C12.7679 24.6318 13.2087 26.4195 14.5617 27.3926C14.965 27.6821 15.4312 27.8243 15.8964 27.8243C16.3037 27.8243 16.708 27.7125 17.0655 27.4972C21.0168 30.5038 23.5368 33.0249 25.7674 35.2585L26.0742 35.5653C26.3393 35.8304 26.3738 36.2438 26.1554 36.5485C25.6211 37.291 24.6399 37.5328 23.8233 37.1244L21.6638 36.0416C20.9507 35.6841 20.1188 35.7207 19.4393 36.1402C18.7598 36.5597 18.3535 37.2869 18.3535 38.0853V47.3631C18.3535 48.2255 17.676 48.9365 16.8441 48.9477C16.4307 48.9487 16.0386 48.7953 15.744 48.5048C15.4505 48.2153 15.289 47.8273 15.289 47.4149C15.289 47.4099 15.289 47.4048 15.289 47.3997V39.7674C15.289 39.3469 14.9487 39.0056 14.5272 39.0056C14.1067 39.0056 13.7654 39.3469 13.7654 39.7674V47.4149C13.7654 47.42 13.7654 47.4251 13.7654 47.4302V48.9436C13.7654 49.7887 13.0777 50.4764 12.2326 50.4764C11.3875 50.4764 10.6998 49.7887 10.6998 48.9436V46.6491C10.6998 46.6491 10.6998 46.644 10.6998 46.6409V39.7664C10.6998 39.3459 10.3596 39.0046 9.93804 39.0046C9.51752 39.0046 9.17623 39.3459 9.17623 39.7664V46.6491C9.17623 46.6491 9.17623 46.6511 9.17623 46.6531C9.1742 47.4962 8.48756 48.1818 7.64347 48.1818C6.79939 48.1818 6.11072 47.4942 6.11072 46.6491V42.8258C6.11072 42.8258 6.11072 42.8248 6.11072 42.8238V38.2367C6.11072 37.8162 5.77044 37.4749 5.34891 37.4749C4.92839 37.4749 4.5871 37.8162 4.5871 38.2367V42.8258C4.5871 43.6699 3.89944 44.3565 3.05536 44.3565C2.21127 44.3565 1.5226 43.6699 1.5226 42.8248V37.6486C1.5226 35.1031 2.05688 32.6369 3.11021 30.3179C3.40681 29.6648 3.67598 28.9975 3.9096 28.3352C4.04977 27.938 3.84154 27.5033 3.4454 27.3631C3.04825 27.223 2.61351 27.4312 2.47334 27.8283C2.25394 28.45 2.00102 29.0757 1.7227 29.6882C0.57999 32.2072 0 34.8847 0 37.6496V42.8258C0 44.5109 1.37125 45.8812 3.05637 45.8812C3.61402 45.8812 4.13713 45.7308 4.58812 45.4688V46.6491C4.58812 48.3342 5.95937 49.7054 7.64449 49.7054C8.21026 49.7054 8.74048 49.551 9.19553 49.2819C9.36414 50.8085 10.6623 52 12.2336 52C13.5653 52 14.7009 51.1437 15.1194 49.9523C15.6303 50.2966 16.2346 50.4774 16.8654 50.4703C18.2509 50.451 19.419 49.4789 19.7704 48.1767H19.998C23.3631 48.1767 26.6247 48.8827 29.6902 50.2763C32.2082 51.42 34.8867 52 37.6506 52H38.4033C38.8238 52 39.1651 51.6587 39.1651 51.2382C39.1651 50.8177 38.8238 50.4764 38.4033 50.4764H37.6506C35.1051 50.4764 32.6389 49.9421 30.32 48.8888C27.0554 47.4048 23.5825 46.6531 19.998 46.6531H19.8791V38.0843C19.8791 37.7014 20.132 37.5033 20.2407 37.4363C20.3494 37.3692 20.6389 37.2321 20.9812 37.4038L23.1417 38.4865C24.6318 39.2311 26.4195 38.7913 27.3926 37.4383C27.936 36.6816 27.9584 35.7004 27.4982 34.9335C30.5251 30.9568 33.0909 28.3951 35.164 26.3261L35.5653 25.9248C35.8304 25.6597 36.2438 25.6252 36.5485 25.8436C37.291 26.3779 37.5328 27.3591 37.1244 28.1757L36.0416 30.3352C35.6841 31.0482 35.7207 31.8801 36.1402 32.5597C36.5597 33.2392 37.2869 33.6455 38.0853 33.6455H47.3631C48.2255 33.6455 48.9365 34.323 48.9477 35.1549C48.9528 35.5693 48.7953 35.9604 48.5048 36.255C48.2153 36.5485 47.8273 36.71 47.4149 36.71C47.4099 36.71 47.4048 36.71 47.3997 36.71H39.7674C39.3469 36.71 39.0056 37.0503 39.0056 37.4718C39.0056 37.8933 39.3469 38.2336 39.7674 38.2336H47.4149C47.42 38.2336 47.4251 38.2336 47.4302 38.2336H48.9436C49.7887 38.2336 50.4764 38.9213 50.4764 39.7664C50.4764 40.6115 49.7887 41.2991 48.9436 41.2991H46.6491C46.6491 41.2991 46.644 41.2991 46.6409 41.2991H39.7664C39.3459 41.2991 39.0046 41.6394 39.0046 42.0609C39.0046 42.4825 39.3459 42.8228 39.7664 42.8228H46.6491C46.6491 42.8228 46.6511 42.8228 46.6531 42.8228C47.4962 42.8248 48.1818 43.5114 48.1818 44.3555C48.1818 45.1996 47.4942 45.8883 46.6491 45.8883H42.8258C42.8258 45.8883 42.8228 45.8883 42.8217 45.8883H38.2367C37.8162 45.8883 37.4749 46.2296 37.4749 46.6501C37.4749 47.0706 37.8162 47.4119 38.2367 47.4119H42.8258C42.8258 47.4119 42.8268 47.4119 42.8278 47.4119C43.6719 47.4129 44.3575 48.0995 44.3575 48.9436C44.3575 49.7877 43.6709 50.4764 42.8258 50.4764H41.9573C41.5368 50.4764 41.1955 50.8177 41.1955 51.2382C41.1955 51.6587 41.5368 52 41.9573 52H42.8258C44.5109 52 45.8812 50.6287 45.8812 48.9436C45.8812 48.386 45.7308 47.8629 45.4688 47.4119H46.6491C48.3342 47.4119 49.7054 46.0406 49.7054 44.3555C49.7054 43.7897 49.551 43.2595 49.2819 42.8045C50.8085 42.6359 52 41.3377 52 39.7664C52 38.4347 51.1437 37.2991 49.9523 36.8806C50.2966 36.3697 50.4774 35.7664 50.4703 35.1346C50.451 33.7491 49.4789 32.581 48.1767 32.2296V32.002C48.1767 28.6836 48.903 25.3327 50.2763 22.3098V22.3108ZM26.4551 33.7908C24.3261 31.6628 21.8883 29.2737 18.2103 26.4551C20.2265 24.4408 22.6775 21.9512 25.5449 18.2103C27.5399 20.2092 30.0071 22.646 33.7897 25.5449C31.7765 27.5561 29.3266 30.0447 26.4551 33.7897V33.7908ZM37.4363 31.7603C37.3692 31.6516 37.2311 31.3621 37.4027 31.0188L38.4855 28.8583C39.2301 27.3682 38.7902 25.5805 37.4373 24.6074C36.6805 24.064 35.6993 24.0416 34.9325 24.5018C30.9487 21.4708 28.4236 18.9396 26.3809 16.8918L25.9248 16.4347C25.6597 16.1696 25.6252 15.7562 25.8436 15.4515C26.3779 14.709 27.3581 14.4672 28.1757 14.8766L30.3687 15.9746C30.3687 15.9746 30.3779 15.9787 30.3829 15.9817C31.0919 16.3189 31.9126 16.2692 32.579 15.8487C33.2463 15.4271 33.6455 14.7049 33.6455 13.9157V11.7166C33.6455 11.2961 33.3042 10.9548 32.8837 10.9548C32.4632 10.9548 32.1219 11.2961 32.1219 11.7166V13.9157C32.1219 14.2946 31.873 14.4926 31.7654 14.5597C31.6597 14.6267 31.3794 14.7638 31.0442 14.6074L28.8593 13.5135C27.3692 12.7679 25.5815 13.2087 24.6084 14.5617C24.065 15.3184 24.0427 16.2996 24.5028 17.0665C21.4789 21.0401 18.9101 23.6039 16.8329 25.677L16.4347 26.0742C16.1696 26.3393 15.7562 26.3738 15.4515 26.1554C14.709 25.6211 14.4672 24.6399 14.8756 23.8233L15.9584 21.6638C16.3159 20.9507 16.2793 20.1188 15.8598 19.4393C15.4403 18.7598 14.7131 18.3535 13.9147 18.3535H4.63789C3.77552 18.3535 3.0645 17.676 3.05333 16.8441C3.04825 16.4297 3.20569 16.0386 3.49619 15.744C3.78568 15.4505 4.17369 15.289 4.58608 15.289C4.59116 15.289 4.59624 15.289 4.60132 15.289H12.2336C12.6541 15.289 12.9954 14.9487 12.9954 14.5272C12.9954 14.1056 12.6541 13.7654 12.2336 13.7654H4.58608C4.58101 13.7654 4.57593 13.7654 4.57085 13.7654H3.05739C2.21229 13.7654 1.52463 13.0777 1.52463 12.2326C1.52463 11.3875 2.21229 10.6998 3.05739 10.6998H5.35196C5.35196 10.6998 5.35703 10.6998 5.36008 10.6998H12.2346C12.6552 10.6998 12.9964 10.3586 12.9964 9.93804C12.9964 9.51752 12.6552 9.17623 12.2346 9.17623H5.35094C5.34992 9.17623 5.34891 9.17623 5.34688 9.17623C4.50381 9.1742 3.81818 8.48756 3.81818 7.64347C3.81818 6.79939 4.50584 6.11072 5.35094 6.11072H9.1742C9.1742 6.11072 9.17522 6.11072 9.17623 6.11072H13.7633C14.1839 6.11072 14.5251 5.76943 14.5251 5.34891C14.5251 4.92839 14.1839 4.5871 13.7633 4.5871H9.1742C8.33012 4.5871 7.64347 3.89944 7.64347 3.05536C7.64347 2.21127 8.33012 1.5226 9.17522 1.5226H14.3514C16.8969 1.5226 19.3631 2.05688 21.6821 3.11021C24.9467 4.59421 28.4195 5.34586 32.0041 5.34586H32.1239V8.16049C32.1239 8.58101 32.4642 8.9223 32.8847 8.9223C33.3052 8.9223 33.6465 8.58101 33.6465 8.16049V4.59319C33.6699 3.75419 34.3454 3.06348 35.1559 3.05231C35.163 3.05231 35.1691 3.05231 35.1762 3.05231C35.5835 3.05231 35.9665 3.20874 36.255 3.49416C36.5485 3.78466 36.711 4.17166 36.711 4.58405C36.711 4.58913 36.711 4.59421 36.711 4.59929V12.2326C36.711 12.6531 37.0513 12.9944 37.4728 12.9944C37.8944 12.9944 38.2346 12.6531 38.2346 12.2326V4.58608C38.2346 4.58101 38.2346 4.57593 38.2346 4.57085V3.05739C38.2346 2.21229 38.9223 1.52463 39.7674 1.52463C40.6125 1.52463 41.3002 2.21229 41.3002 3.05739V5.35196C41.3002 5.35196 41.3002 5.35703 41.3002 5.36008V12.2346C41.3002 12.6552 41.6404 12.9964 42.062 12.9964C42.4835 12.9964 42.8238 12.6552 42.8238 12.2346V5.35094C42.8238 5.35094 42.8238 5.34789 42.8238 5.34688C42.8258 4.50381 43.5124 3.81818 44.3565 3.81818C45.2006 3.81818 45.8893 4.50584 45.8893 5.35094V9.1742C45.8893 9.1742 45.8893 9.17725 45.8893 9.17826V13.7633C45.8893 14.1839 46.2296 14.5251 46.6501 14.5251C47.0706 14.5251 47.4119 14.1839 47.4119 13.7633V9.1742C47.4119 9.1742 47.4119 9.17319 47.4119 9.17217C47.4129 8.32809 48.0995 7.64246 48.9436 7.64246C49.7877 7.64246 50.4764 8.3291 50.4764 9.1742V14.3504C50.4764 16.8959 49.9421 19.3621 48.8888 21.6811C47.4048 24.9457 46.6531 28.4185 46.6531 32.003V32.1219H38.0843C37.7014 32.1219 37.5033 31.869 37.4363 31.7603Z" fill="#EC5D25"/>
</g>
<defs>
<clipPath id="clip0_1117_1032">
<rect width="52" height="52" fill="white"/>
</clipPath>
</defs>
</svg>
