<svg width="71" height="70" viewBox="0 0 71 70" fill="none" xmlns="http://www.w3.org/2000/svg">
<path d="M37.247 -0.00183105C39.8663 -0.00164148 41.9979 2.12983 41.998 4.74915V6.19055C44.5585 6.74015 47.0289 7.59692 49.3652 8.74524C49.4253 8.6373 49.4992 8.53601 49.5908 8.44446L49.6923 8.34387C53.7883 4.24787 60.4533 4.24785 64.5507 8.34387C66.5356 10.3276 67.6278 12.966 67.6279 15.7726C67.6279 18.5794 66.5358 21.2171 64.5507 23.2023L64.4492 23.3029C64.3589 23.3945 64.256 23.4683 64.1494 23.5284C66.2931 27.8952 67.4286 32.726 67.4286 37.7325C67.4286 43.4552 65.9458 48.9494 63.1679 53.7794L70.0273 68.0382H70.0302C70.2337 68.4619 70.205 68.9608 69.955 69.3585C69.7048 69.7563 69.2671 69.9981 68.7968 69.9982H63.5097C63.1475 69.9981 62.7999 69.8548 62.5429 69.5978L55.6279 62.6827C49.8721 67.4213 42.7162 69.9982 35.164 69.9982C27.612 69.9981 20.4567 67.4212 14.7011 62.6827L7.78607 69.5978C7.5291 69.8548 7.18149 69.9981 6.81928 69.9982H1.53217C1.06188 69.9982 0.624146 69.7563 0.373964 69.3585C0.123977 68.9608 0.0952288 68.4619 0.298769 68.0382L7.15521 53.7794C4.376 48.9481 2.89552 43.4552 2.89545 37.7325C2.89545 32.726 4.03005 27.8938 6.17377 23.5284C6.06716 23.4683 5.96554 23.3944 5.87396 23.3029L5.77338 23.2023C1.67737 19.1063 1.67741 12.4399 5.77338 8.34387C9.87077 4.24785 16.5358 4.24785 20.6318 8.34387L20.7324 8.44446C20.8239 8.53596 20.8978 8.63736 20.9579 8.74524C23.2958 7.59682 25.7668 6.74015 28.3261 6.19055V4.74915C28.3262 2.12972 30.4576 -0.00183105 33.0771 -0.00183105H37.247ZM3.706 67.2628H6.24994L12.6611 60.8527C12.5572 60.7501 12.4515 60.6499 12.3476 60.546C11.0748 59.2732 9.92255 57.9112 8.89447 56.4757L3.706 67.2628ZM35.163 8.20129C18.8801 8.20133 5.63275 21.4496 5.63275 37.7325C5.63299 54.0153 18.8803 67.2628 35.163 67.2628C51.4458 67.2628 64.694 54.0153 64.6943 37.7325C64.6943 21.4496 51.446 8.20129 35.163 8.20129ZM61.4306 56.4757C60.4025 57.9099 59.2493 59.2732 57.9765 60.546C57.874 60.6498 57.7678 60.7516 57.664 60.8527L64.0742 67.2628H66.6191L61.4306 56.4757ZM35.163 12.0294C49.3351 12.0294 60.8661 23.5605 60.8661 37.7325C60.8659 51.9044 49.3349 63.4347 35.163 63.4347C20.9912 63.4346 9.46111 51.9043 9.46088 37.7325C9.46088 23.5606 20.9911 12.0295 35.163 12.0294ZM35.163 14.7638C22.4977 14.7639 12.1953 25.0672 12.1953 37.7325C12.1955 50.3977 22.4978 60.7002 35.163 60.7003C47.8283 60.7003 58.1315 50.3978 58.1318 37.7325C58.1318 25.0671 47.8284 14.7638 35.163 14.7638ZM35.1484 54.9581C35.5079 54.9582 35.8609 55.1043 36.1152 55.3585C36.3694 55.6128 36.5155 55.9658 36.5156 56.3253C36.5156 56.6848 36.3693 57.0378 36.1152 57.2921C35.8596 57.5464 35.5079 57.6924 35.1484 57.6925C34.7889 57.6925 34.4362 57.5463 34.1806 57.2921C33.9263 57.0378 33.7812 56.6849 33.7812 56.3253C33.7813 55.9658 33.9264 55.6128 34.1806 55.3585C34.4362 55.1045 34.7876 54.9581 35.1484 54.9581ZM51.3701 43.337C51.6177 42.6238 52.3963 42.2465 53.1083 42.4923H53.1103C53.8238 42.7398 54.201 43.518 53.955 44.2316C52.1477 49.4582 48.2019 53.729 43.1298 55.9493C42.9507 56.0273 42.7642 56.0646 42.581 56.0646C42.0534 56.0644 41.5522 55.7578 41.3281 55.2452C41.026 54.5535 41.3404 53.7466 42.0322 53.4445C46.4069 51.529 49.8115 47.8444 51.3701 43.337ZM35.162 22.1476C35.9084 22.1477 36.5136 22.7537 36.5136 23.5001V32.84C36.5136 32.8523 36.5126 32.8654 36.5126 32.879C38.6399 33.4683 40.2011 35.418 40.2011 37.7325C40.201 38.4911 40.032 39.2115 39.7314 39.8566L43.9843 43.4806C44.5517 43.9646 44.6197 44.8181 44.1357 45.3868C43.6517 45.9541 42.7991 46.0222 42.2304 45.5382L37.9755 41.9132H37.9726C37.1688 42.4545 36.2018 42.7697 35.1601 42.7697C32.3782 42.7695 30.1222 40.5144 30.122 37.7325C30.122 35.4179 31.6842 33.4696 33.8115 32.879C33.8115 32.8667 33.8095 32.8536 33.8095 32.84V23.5001C33.8095 22.7537 34.4156 22.1476 35.162 22.1476ZM35.163 35.4171C33.8834 35.4172 32.8476 36.4543 32.8476 37.7325C32.8478 39.0106 33.8836 40.0469 35.163 40.047C36.4426 40.047 37.4792 39.0106 37.4794 37.7325C37.4794 36.4542 36.4427 35.4171 35.163 35.4171ZM53.7568 36.38C54.1163 36.38 54.4693 36.5261 54.7236 36.7804C54.9778 37.0347 55.124 37.3877 55.124 37.7472C55.124 38.1067 54.9778 38.4597 54.7236 38.714C54.4693 38.9696 54.1163 39.1143 53.7568 39.1144C53.3973 39.1144 53.0443 38.9696 52.79 38.714C52.5357 38.4597 52.3896 38.1067 52.3896 37.7472C52.3896 37.3876 52.5357 37.0347 52.79 36.7804C53.0443 36.5261 53.3972 36.38 53.7568 36.38ZM16.5703 36.3497C16.9296 36.3499 17.2819 36.495 17.5361 36.7491C17.7903 37.0048 17.9364 37.3574 17.9365 37.7169C17.9365 38.0765 17.7904 38.4294 17.5361 38.6837C17.2819 38.9378 16.9296 39.084 16.5703 39.0841C16.2108 39.0841 15.8577 38.9379 15.6035 38.6837C15.3492 38.4281 15.2031 38.0765 15.2031 37.7169C15.2031 37.3574 15.3492 37.0048 15.6035 36.7491C15.8577 36.4949 16.2107 36.3497 16.5703 36.3497ZM18.4999 10.088C15.4567 7.24995 10.6733 7.31138 7.70795 10.2765C6.23965 11.7448 5.43162 13.6973 5.43158 15.7726C5.43158 17.7577 6.17281 19.6267 7.51947 21.0704C8.85784 18.8585 10.472 16.7927 12.3476 14.9171C14.222 13.0414 16.2879 11.4265 18.4999 10.088ZM62.6171 10.2765C59.6518 7.3113 54.8684 7.25004 51.8251 10.088C54.0371 11.4264 56.1022 13.0415 57.9765 14.9171C59.8522 16.7928 61.4672 18.8584 62.8056 21.0704C65.6438 18.0272 65.5823 13.2438 62.6171 10.2784V10.2765ZM35.1786 17.7716C35.5393 17.7717 35.8903 17.9179 36.1445 18.172C36.4001 18.4263 36.5458 18.7792 36.5458 19.1388C36.5458 19.4983 36.4001 19.8513 36.1445 20.1056C35.8903 20.3596 35.5393 20.5059 35.1786 20.506C34.8192 20.506 34.4661 20.3597 34.2119 20.1056C33.9576 19.8513 33.8115 19.4983 33.8115 19.1388C33.8115 18.7792 33.9576 18.4263 34.2119 18.172C34.4661 17.9178 34.8178 17.7716 35.1786 17.7716ZM33.0781 2.73254C31.9667 2.7326 31.0615 3.63774 31.0615 4.74915V5.72571C32.4108 5.55482 33.7808 5.46692 35.163 5.46692C36.5452 5.46692 37.9152 5.55618 39.2646 5.72571V4.74915C39.2645 3.6377 38.3595 2.73254 37.248 2.73254H33.0781Z" fill="#EC5D25"/>
</svg>
