<svg width="22" height="22" viewBox="0 0 22 22" fill="none" xmlns="http://www.w3.org/2000/svg">
<path d="M11 0C17.0646 5.3018e-07 22 4.93544 22 11C22 17.0646 17.0646 22 11 22C4.93272 22 2.19031e-07 17.0646 0 11C5.3018e-07 4.93544 4.93545 8.07159e-07 11 0ZM11 1.08789C5.53401 1.08789 1.08789 5.53401 1.08789 11C1.08789 16.466 5.53401 20.9121 11 20.9121C16.466 20.9121 20.9121 16.4631 20.9121 10.9971C20.912 5.53118 16.4659 1.08594 11 1.08594V1.08789ZM11 7C11.1344 7 11.2693 7.0568 11.3721 7.16699L16.8457 13.0352C17.0513 13.2555 17.0513 13.6146 16.8457 13.835C16.6401 14.0552 16.3051 14.0553 16.0996 13.835L10.9971 8.36426L5.89453 13.835H5.90039C5.69487 14.0553 5.35989 14.0552 5.1543 13.835C4.94872 13.6146 4.94872 13.2555 5.1543 13.0352L10.6279 7.16699C10.7307 7.0568 10.8656 7 11 7Z" fill="#9999A0"/>
</svg>
